<svg width="284" height="82" viewBox="0 0 284 82" fill="none" xmlns="http://www.w3.org/2000/svg">
<path d="M51.824 7.88C53.1467 8.136 54.128 8.584 54.768 9.224C55.4507 9.864 55.792 10.6107 55.792 11.464C55.792 12.872 55.3867 13.896 54.576 14.536C53.808 15.176 52.5707 15.432 50.864 15.304C47.024 15.0053 44.016 14.8133 41.84 14.728C39.7067 14.6 36.8907 14.5147 33.392 14.472C31.8133 22.3227 30.3627 30.216 29.04 38.152C28.5707 41.0533 28.08 44.424 27.568 48.264C27.056 52.0613 26.7147 55.1333 26.544 57.48C26.4587 58.7173 25.9467 59.6773 25.008 60.36C24.0693 61 22.9387 61.32 21.616 61.32C20.208 61.32 19.12 60.9787 18.352 60.296C17.584 59.6133 17.2 58.7173 17.2 57.608C17.2 56.584 17.3493 54.8987 17.648 52.552C17.9893 50.1627 18.3733 47.6667 18.8 45.064C19.2693 42.4613 19.632 40.2 19.888 38.28C20.3573 35.0373 20.8907 31.816 21.488 28.616C22.0853 25.416 22.6827 22.3867 23.28 19.528C23.408 18.888 23.5573 18.1627 23.728 17.352C23.8987 16.4987 24.0907 15.56 24.304 14.536C20.1227 14.664 16.8373 15.0053 14.448 15.56C12.0587 16.1147 10.352 16.904 9.328 17.928C8.34667 18.9093 7.856 20.1893 7.856 21.768C7.856 23.2187 8.28267 24.6053 9.136 25.928C9.30667 26.2267 9.392 26.5467 9.392 26.888C9.392 27.6987 8.90133 28.4667 7.92 29.192C6.98133 29.8747 6 30.216 4.976 30.216C4.25067 30.216 3.65333 30.0027 3.184 29.576C2.33067 28.8507 1.62667 27.8267 1.072 26.504C0.517333 25.1387 0.24 23.6027 0.24 21.896C0.24 18.2693 1.41333 15.368 3.76 13.192C6.14933 10.9733 9.75467 9.352 14.576 8.328C19.44 7.304 25.6693 6.792 33.264 6.792C37.9573 6.792 41.6907 6.87733 44.464 7.048C47.28 7.21866 49.7333 7.496 51.824 7.88ZM81.217 46.728C81.7717 46.728 82.1983 46.984 82.497 47.496C82.8383 48.008 83.009 48.712 83.009 49.608C83.009 51.3147 82.6037 52.6373 81.793 53.576C79.8303 55.8373 77.8037 57.6933 75.713 59.144C73.665 60.5947 71.3183 61.32 68.673 61.32C66.497 61.32 64.8543 60.7013 63.745 59.464C62.6357 58.184 62.081 56.3493 62.081 53.96C62.081 52.7653 62.3797 50.632 62.977 47.56C63.5317 44.872 63.809 43.016 63.809 41.992C63.809 41.3093 63.5743 40.968 63.105 40.968C62.5503 40.968 61.761 41.6933 60.737 43.144C59.713 44.552 58.689 46.4293 57.665 48.776C56.641 51.1227 55.809 53.5973 55.169 56.2C54.3583 59.6133 52.353 61.32 49.153 61.32C47.873 61.32 47.0197 60.872 46.593 59.976C46.209 59.0373 46.017 57.3733 46.017 54.984C46.017 53.6187 46.0383 52.5307 46.081 51.72L46.145 46.6C46.145 40.0293 46.8063 33.1813 48.129 26.056C49.4943 18.9307 51.4783 12.9573 54.081 8.136C56.7263 3.272 59.8837 0.839996 63.553 0.839996C65.5157 0.839996 67.0943 1.69333 68.289 3.4C69.5263 5.064 70.145 7.24 70.145 9.928C70.145 14.2373 68.8863 18.7173 66.369 23.368C63.8517 27.976 59.7557 33.3733 54.081 39.56C53.953 41.7787 53.889 44.0613 53.889 46.408C55.297 42.7813 56.8543 39.8373 58.561 37.576C60.3103 35.272 62.017 33.6293 63.681 32.648C65.3877 31.6667 66.945 31.176 68.353 31.176C71.1263 31.176 72.513 32.5627 72.513 35.336C72.513 37 72.0437 40.008 71.105 44.36C70.2943 48.072 69.889 50.5253 69.889 51.72C69.889 53.4267 70.5077 54.28 71.745 54.28C72.5983 54.28 73.601 53.768 74.753 52.744C75.9477 51.6773 77.5263 49.9707 79.489 47.624C80.001 47.0267 80.577 46.728 81.217 46.728ZM62.209 7.176C61.441 7.176 60.5877 8.28533 59.649 10.504C58.7103 12.68 57.793 15.6453 56.897 19.4C56.0437 23.112 55.3397 27.1653 54.785 31.56C57.4303 28.4453 59.6063 25.0533 61.313 21.384C63.0623 17.7147 63.937 14.3867 63.937 11.4C63.937 10.0347 63.7877 8.98933 63.489 8.264C63.1903 7.53866 62.7637 7.176 62.209 7.176ZM82.366 61.32C80.7447 61.32 79.5927 60.4667 78.91 58.76C78.27 57.0533 77.95 54.3227 77.95 50.568C77.95 45.0213 78.7393 39.752 80.318 34.76C80.702 33.5227 81.3207 32.6267 82.174 32.072C83.07 31.4747 84.3073 31.176 85.886 31.176C86.7393 31.176 87.3367 31.2827 87.678 31.496C88.0193 31.7093 88.19 32.1147 88.19 32.712C88.19 33.3947 87.87 34.9307 87.23 37.32C86.8033 39.0267 86.462 40.52 86.206 41.8C85.95 43.08 85.7367 44.6587 85.566 46.536C86.974 42.8667 88.5527 39.88 90.302 37.576C92.0513 35.272 93.758 33.6293 95.422 32.648C97.1287 31.6667 98.686 31.176 100.094 31.176C102.867 31.176 104.254 32.5627 104.254 35.336C104.254 35.8907 104.062 37.2347 103.678 39.368C103.337 41.0747 103.166 42.1413 103.166 42.568C103.166 44.0613 103.699 44.808 104.766 44.808C105.961 44.808 107.497 43.8693 109.374 41.992C109.929 41.4373 110.505 41.16 111.102 41.16C111.657 41.16 112.083 41.416 112.382 41.928C112.723 42.3973 112.894 43.0373 112.894 43.848C112.894 45.4267 112.467 46.664 111.614 47.56C110.419 48.7973 109.011 49.864 107.39 50.76C105.811 51.6133 104.126 52.04 102.334 52.04C100.073 52.04 98.3447 51.464 97.15 50.312C95.998 49.16 95.422 47.6027 95.422 45.64C95.422 45 95.486 44.36 95.614 43.72C95.6993 42.8667 95.742 42.2907 95.742 41.992C95.742 41.3093 95.5073 40.968 95.038 40.968C94.398 40.968 93.5447 41.6933 92.478 43.144C91.454 44.552 90.43 46.4293 89.406 48.776C88.382 51.1227 87.55 53.5973 86.91 56.2C86.4407 58.2053 85.886 59.5707 85.246 60.296C84.6487 60.9787 83.6887 61.32 82.366 61.32ZM115.331 26.952C113.539 26.952 112.195 26.5467 111.299 25.736C110.403 24.8827 109.955 23.7093 109.955 22.216C109.955 20.7227 110.531 19.4853 111.683 18.504C112.878 17.48 114.35 16.968 116.099 16.968C117.678 16.968 118.958 17.352 119.939 18.12C120.92 18.888 121.411 19.976 121.411 21.384C121.411 23.0907 120.856 24.456 119.747 25.48C118.638 26.4613 117.166 26.952 115.331 26.952ZM114.819 61.32C112.046 61.32 110.019 60.3387 108.739 58.376C107.502 56.4133 106.883 53.8107 106.883 50.568C106.883 48.648 107.118 46.1947 107.587 43.208C108.099 40.1787 108.739 37.3627 109.507 34.76C109.891 33.3947 110.403 32.456 111.043 31.944C111.683 31.432 112.707 31.176 114.115 31.176C116.291 31.176 117.379 31.9013 117.379 33.352C117.379 34.4187 116.974 36.8933 116.163 40.776C115.139 45.4693 114.627 48.648 114.627 50.312C114.627 51.592 114.798 52.5733 115.139 53.256C115.48 53.9387 116.056 54.28 116.867 54.28C117.635 54.28 118.595 53.7467 119.747 52.68C120.899 51.6133 122.435 49.928 124.355 47.624C124.867 47.0267 125.443 46.728 126.083 46.728C126.638 46.728 127.064 46.984 127.363 47.496C127.704 48.008 127.875 48.712 127.875 49.608C127.875 51.3147 127.47 52.6373 126.659 53.576C122.435 58.7387 118.488 61.32 114.819 61.32ZM147.608 43.08C148.803 43.08 149.4 43.976 149.4 45.768C149.4 49.1387 146.755 50.824 141.464 50.824C140.44 50.824 138.968 50.632 137.048 50.248C137.603 52.8933 138.051 55.8373 138.392 59.08C138.776 62.28 138.968 64.9253 138.968 67.016C138.968 71.624 138.221 75.144 136.728 77.576C135.235 80.008 133.272 81.224 130.84 81.224C127.768 81.224 125.571 79.048 124.248 74.696C122.968 70.344 122.328 63.7733 122.328 54.984C122.328 46.792 123.203 38.4933 124.952 30.088C126.744 21.64 129.176 14.664 132.248 9.16C135.363 3.61333 138.776 0.839996 142.488 0.839996C144.493 0.839996 146.051 1.736 147.16 3.528C148.312 5.32 148.888 7.73066 148.888 10.76C148.888 20.7867 142.893 31.7093 130.904 43.528C130.477 47.7093 130.264 51.3787 130.264 54.536C130.264 58.9307 130.413 63.432 130.712 68.04C131.011 72.6907 131.501 75.016 132.184 75.016C133.464 75.016 134.104 72.7973 134.104 68.36C134.104 65.032 133.869 61.8107 133.4 58.696C132.973 55.5813 132.376 52.296 131.608 48.84C131.565 48.2853 131.736 47.5813 132.12 46.728C132.547 45.8747 133.059 45.128 133.656 44.488C134.253 43.848 134.787 43.528 135.256 43.528C136.109 43.528 137.133 43.5707 138.328 43.656C138.712 43.6987 139.16 43.72 139.672 43.72C141.379 43.72 143.277 43.5707 145.368 43.272C145.709 43.2293 146.072 43.1867 146.456 43.144C146.84 43.1013 147.224 43.08 147.608 43.08ZM141.144 7.176C140.376 7.176 139.416 8.47733 138.264 11.08C137.155 13.6827 136.045 17.1387 134.936 21.448C133.827 25.7147 132.867 30.2373 132.056 35.016C135.469 31.1333 138.093 27.1013 139.928 22.92C141.763 18.696 142.701 14.7493 142.744 11.08C142.744 8.47733 142.211 7.176 141.144 7.176ZM155.757 37.256C155.672 39.3893 155.629 41.0533 155.629 42.248C155.629 45.32 155.778 47.7307 156.077 49.48C156.418 51.1867 156.952 52.424 157.677 53.192C158.445 53.9173 159.49 54.28 160.813 54.28C161.496 54.28 162.306 54.0667 163.245 53.64C164.184 53.2133 165.037 52.6587 165.805 51.976C166.274 51.5493 166.744 51.336 167.213 51.336C167.725 51.336 168.13 51.6347 168.429 52.232C168.77 52.7867 168.941 53.4693 168.941 54.28C168.941 55.0907 168.77 55.88 168.429 56.648C168.13 57.416 167.661 58.056 167.021 58.568C164.802 60.4027 162.285 61.32 159.469 61.32C155.416 61.32 152.45 59.6347 150.573 56.264C148.696 52.8507 147.757 48.4133 147.757 42.952C147.757 41.0747 147.821 39.176 147.949 37.256H145.453C144.173 37.256 143.298 37.0213 142.829 36.552C142.402 36.0827 142.189 35.336 142.189 34.312C142.189 31.9227 143.149 30.728 145.069 30.728H148.717C149.442 26.0347 150.552 21.7467 152.045 17.864C153.538 13.9813 155.33 10.888 157.421 8.584C159.554 6.28 161.837 5.128 164.269 5.128C166.061 5.128 167.469 5.91733 168.493 7.496C169.517 9.07467 170.029 11.0587 170.029 13.448C170.029 20.0613 167.256 25.8213 161.709 30.728H168.877C169.56 30.728 170.05 30.8773 170.349 31.176C170.648 31.4747 170.797 32.0293 170.797 32.84C170.797 35.784 168.386 37.256 163.565 37.256H155.757ZM162.541 11.272C161.901 11.272 161.176 12.0827 160.365 13.704C159.597 15.2827 158.85 17.5013 158.125 20.36C157.442 23.176 156.866 26.312 156.397 29.768C158.914 27.592 160.792 25.16 162.029 22.472C163.309 19.7413 163.949 17.2667 163.949 15.048C163.949 12.5307 163.48 11.272 162.541 11.272ZM200.499 46.6C202.76 46.6 203.891 47.56 203.891 49.48C203.891 51.016 203.464 52.0827 202.611 52.68C201.757 53.2773 200.413 53.576 198.579 53.576H197.235L196.979 56.968C196.851 58.9307 196.424 60.2533 195.699 60.936C195.016 61.6187 193.885 61.96 192.307 61.96C190.045 61.96 188.915 60.5733 188.915 57.8C188.915 57.3307 188.936 56.968 188.979 56.712L189.299 53.576C183.112 53.576 178.419 53.5547 175.219 53.512C174.28 53.512 173.448 53.0853 172.723 52.232C171.997 51.3787 171.635 50.2693 171.635 48.904C171.635 48.0933 171.784 47.24 172.083 46.344C173.96 40.8827 176.776 34.6747 180.531 27.72C181.341 26.2267 182.152 25.1813 182.963 24.584C183.816 23.944 185.117 23.624 186.867 23.624C187.805 23.624 188.509 23.8373 188.979 24.264C189.491 24.6907 189.747 25.2453 189.747 25.928C189.747 26.6533 189.533 27.3787 189.107 28.104C184.925 35.7413 181.981 41.9067 180.275 46.6H190.131C190.643 42.632 191.347 38.856 192.243 35.272C192.584 33.9493 193.139 32.9467 193.907 32.264C194.675 31.5387 195.741 31.176 197.107 31.176C199.283 31.176 200.371 32.1147 200.371 33.992C200.371 34.5467 200.328 34.9733 200.243 35.272C199.475 38.8987 198.792 42.6747 198.195 46.6H200.499ZM216.444 61.32C213.799 61.32 211.687 60.36 210.108 58.44C208.529 56.52 207.74 54.0027 207.74 50.888C207.74 47.4747 208.529 44.2533 210.108 41.224C211.687 38.152 213.777 35.6987 216.38 33.864C219.025 31.9867 221.82 31.048 224.764 31.048C225.703 31.048 226.321 31.24 226.62 31.624C226.961 31.9653 227.239 32.6053 227.452 33.544C228.348 33.3733 229.287 33.288 230.268 33.288C232.359 33.288 233.404 34.0347 233.404 35.528C233.404 36.424 233.084 38.5573 232.444 41.928C231.463 46.8347 230.972 50.248 230.972 52.168C230.972 52.808 231.121 53.32 231.42 53.704C231.761 54.088 232.188 54.28 232.7 54.28C233.511 54.28 234.492 53.768 235.644 52.744C236.796 51.6773 238.353 49.9707 240.316 47.624C240.828 47.0267 241.404 46.728 242.044 46.728C242.599 46.728 243.025 46.984 243.324 47.496C243.665 48.008 243.836 48.712 243.836 49.608C243.836 51.3147 243.431 52.6373 242.62 53.576C240.871 55.752 239.015 57.5867 237.052 59.08C235.089 60.5733 233.191 61.32 231.356 61.32C229.948 61.32 228.647 60.8507 227.452 59.912C226.3 58.9307 225.425 57.608 224.828 55.944C222.609 59.528 219.815 61.32 216.444 61.32ZM218.748 54.856C219.687 54.856 220.583 54.3013 221.436 53.192C222.289 52.0827 222.908 50.6107 223.292 48.776L225.66 37C223.868 37.0427 222.204 37.7253 220.668 39.048C219.175 40.328 217.98 42.0347 217.084 44.168C216.188 46.3013 215.74 48.5627 215.74 50.952C215.74 52.2747 215.996 53.256 216.508 53.896C217.063 54.536 217.809 54.856 218.748 54.856ZM262.891 46.728C263.445 46.728 263.872 46.984 264.171 47.496C264.512 48.008 264.683 48.712 264.683 49.608C264.683 51.3147 264.277 52.6373 263.467 53.576C261.632 55.8373 259.627 57.6933 257.451 59.144C255.317 60.5947 252.885 61.32 250.155 61.32C246.4 61.32 243.605 59.6133 241.771 56.2C239.979 52.7867 239.083 48.3707 239.083 42.952C239.083 37.7467 239.744 31.816 241.067 25.16C242.432 18.504 244.416 12.7867 247.019 8.008C249.664 3.22933 252.8 0.839996 256.427 0.839996C258.475 0.839996 260.075 1.8 261.227 3.72C262.421 5.59733 263.019 8.30667 263.019 11.848C263.019 16.9253 261.611 22.8133 258.795 29.512C255.979 36.2107 252.16 42.8453 247.339 49.416C247.637 51.1653 248.128 52.424 248.811 53.192C249.493 53.9173 250.389 54.28 251.499 54.28C253.248 54.28 254.784 53.7893 256.107 52.808C257.429 51.784 259.115 50.056 261.163 47.624C261.675 47.0267 262.251 46.728 262.891 46.728ZM255.019 7.176C254.037 7.176 252.928 8.94667 251.691 12.488C250.453 16.0293 249.365 20.424 248.427 25.672C247.488 30.92 246.976 35.9547 246.891 40.776C249.92 35.784 252.331 30.792 254.123 25.8C255.915 20.7653 256.811 16.1787 256.811 12.04C256.811 8.79733 256.213 7.176 255.019 7.176ZM278.006 51.976C278.475 51.5493 278.944 51.336 279.414 51.336C279.926 51.336 280.331 51.6347 280.63 52.232C280.971 52.7867 281.142 53.4693 281.142 54.28C281.142 56.072 280.502 57.5013 279.222 58.568C277.003 60.4027 274.486 61.32 271.67 61.32C267.616 61.32 264.651 59.6347 262.774 56.264C260.896 52.8507 259.958 48.4133 259.958 42.952C259.958 37.7467 260.619 31.816 261.942 25.16C263.307 18.504 265.291 12.7867 267.894 8.008C270.539 3.22933 273.675 0.839996 277.302 0.839996C279.35 0.839996 280.95 1.8 282.102 3.72C283.296 5.59733 283.894 8.30667 283.894 11.848C283.894 16.9253 282.486 22.8133 279.67 29.512C276.896 36.2107 273.099 42.824 268.278 49.352C268.576 51.1013 269.11 52.36 269.878 53.128C270.646 53.896 271.691 54.28 273.014 54.28C273.739 54.28 274.55 54.0667 275.446 53.64C276.384 53.2133 277.238 52.6587 278.006 51.976ZM275.894 7.176C274.912 7.176 273.803 8.94667 272.566 12.488C271.328 16.0293 270.24 20.424 269.302 25.672C268.363 30.92 267.851 35.9547 267.766 40.776C270.795 35.784 273.206 30.792 274.998 25.8C276.79 20.7653 277.686 16.1787 277.686 12.04C277.686 8.79733 277.088 7.176 275.894 7.176Z" fill="#1BBF00"/>
</svg>
