<svg width="31" height="46" viewBox="0 0 31 46" fill="none" xmlns="http://www.w3.org/2000/svg">
<path d="M22 11H16V5C16 4.73478 15.8946 4.48043 15.7071 4.29289C15.5196 4.10536 15.2652 4 15 4C14.7348 4 14.4804 4.10536 14.2929 4.29289C14.1054 4.48043 14 4.73478 14 5V11H8C7.73478 11 7.48043 11.1054 7.29289 11.2929C7.10536 11.4804 7 11.7348 7 12C7 12.2652 7.10536 12.5196 7.29289 12.7071C7.48043 12.8946 7.73478 13 8 13H14V19C14 19.2652 14.1054 19.5196 14.2929 19.7071C14.4804 19.8946 14.7348 20 15 20C15.2652 20 15.5196 19.8946 15.7071 19.7071C15.8946 19.5196 16 19.2652 16 19V13H22C22.2652 13 22.5196 12.8946 22.7071 12.7071C22.8946 12.5196 23 12.2652 23 12C23 11.7348 22.8946 11.4804 22.7071 11.2929C22.5196 11.1054 22.2652 11 22 11Z" fill="#1BBF00"/>
<path d="M7.79865 34H6.86683L8.96058 28.1818H9.97479L12.0685 34H11.1367L9.49183 29.2386H9.44638L7.79865 34ZM7.9549 31.7216H10.9776V32.4602H7.9549V31.7216ZM14.4038 34.0852C14.0515 34.0852 13.7371 33.9953 13.4606 33.8153C13.186 33.6335 12.9701 33.375 12.8129 33.0398C12.6576 32.7027 12.5799 32.2983 12.5799 31.8267C12.5799 31.3551 12.6585 30.9517 12.8157 30.6165C12.9748 30.2812 13.1926 30.0246 13.4691 29.8466C13.7456 29.6686 14.0591 29.5795 14.4094 29.5795C14.6803 29.5795 14.8981 29.625 15.0629 29.7159C15.2295 29.8049 15.3583 29.9091 15.4492 30.0284C15.542 30.1477 15.614 30.2528 15.6651 30.3438H15.7163V28.1818H16.5657V34H15.7362V33.321H15.6651C15.614 33.4138 15.5401 33.5199 15.4435 33.6392C15.3488 33.7585 15.2182 33.8627 15.0515 33.9517C14.8848 34.0407 14.6689 34.0852 14.4038 34.0852ZM14.5913 33.3608C14.8356 33.3608 15.042 33.2964 15.2106 33.1676C15.381 33.0369 15.5098 32.8561 15.5969 32.625C15.686 32.3939 15.7305 32.125 15.7305 31.8182C15.7305 31.5152 15.6869 31.25 15.5998 31.0227C15.5127 30.7955 15.3848 30.6184 15.2163 30.4915C15.0477 30.3646 14.8394 30.3011 14.5913 30.3011C14.3356 30.3011 14.1225 30.3674 13.9521 30.5C13.7816 30.6326 13.6528 30.8134 13.5657 31.0426C13.4805 31.2718 13.4379 31.5303 13.4379 31.8182C13.4379 32.1098 13.4814 32.3722 13.5685 32.6051C13.6557 32.8381 13.7844 33.0227 13.9549 33.1591C14.1272 33.2936 14.3394 33.3608 14.5913 33.3608ZM19.4116 34.0852C19.0593 34.0852 18.7449 33.9953 18.4684 33.8153C18.1938 33.6335 17.9779 33.375 17.8207 33.0398C17.6654 32.7027 17.5877 32.2983 17.5877 31.8267C17.5877 31.3551 17.6663 30.9517 17.8235 30.6165C17.9826 30.2812 18.2004 30.0246 18.4769 29.8466C18.7534 29.6686 19.0669 29.5795 19.4173 29.5795C19.6881 29.5795 19.9059 29.625 20.0707 29.7159C20.2373 29.8049 20.3661 29.9091 20.457 30.0284C20.5498 30.1477 20.6218 30.2528 20.6729 30.3438H20.7241V28.1818H21.5735V34H20.744V33.321H20.6729C20.6218 33.4138 20.5479 33.5199 20.4513 33.6392C20.3567 33.7585 20.226 33.8627 20.0593 33.9517C19.8926 34.0407 19.6767 34.0852 19.4116 34.0852ZM19.5991 33.3608C19.8434 33.3608 20.0498 33.2964 20.2184 33.1676C20.3888 33.0369 20.5176 32.8561 20.6048 32.625C20.6938 32.3939 20.7383 32.125 20.7383 31.8182C20.7383 31.5152 20.6947 31.25 20.6076 31.0227C20.5205 30.7955 20.3926 30.6184 20.2241 30.4915C20.0555 30.3646 19.8472 30.3011 19.5991 30.3011C19.3434 30.3011 19.1303 30.3674 18.9599 30.5C18.7894 30.6326 18.6606 30.8134 18.5735 31.0426C18.4883 31.2718 18.4457 31.5303 18.4457 31.8182C18.4457 32.1098 18.4892 32.3722 18.5763 32.6051C18.6635 32.8381 18.7923 33.0227 18.9627 33.1591C19.1351 33.2936 19.3472 33.3608 19.5991 33.3608ZM1.0728 44V38.1818H3.14666C3.59931 38.1818 3.97431 38.2642 4.27166 38.429C4.56901 38.5937 4.79155 38.8191 4.93928 39.1051C5.087 39.3892 5.16087 39.7093 5.16087 40.0653C5.16087 40.4233 5.08606 40.7453 4.93643 41.0312C4.78871 41.3153 4.56522 41.5407 4.26598 41.7074C3.96863 41.8722 3.59458 41.9545 3.14382 41.9545H1.71768V41.2102H3.06428C3.35026 41.2102 3.58227 41.161 3.7603 41.0625C3.93833 40.9621 4.06901 40.8258 4.15234 40.6534C4.23568 40.4811 4.27734 40.285 4.27734 40.0653C4.27734 39.8456 4.23568 39.6506 4.15234 39.4801C4.06901 39.3097 3.93738 39.1761 3.75746 39.0795C3.57943 38.983 3.34458 38.9347 3.05291 38.9347H1.95064V44H1.0728ZM6.1218 44V39.6364H6.94283V40.3295H6.98828C7.06783 40.0947 7.20798 39.91 7.40874 39.7756C7.61139 39.6392 7.84055 39.571 8.09624 39.571C8.14927 39.571 8.21177 39.5729 8.28374 39.5767C8.3576 39.5805 8.41536 39.5852 8.45703 39.5909V40.4034C8.42294 40.3939 8.36233 40.3835 8.27521 40.3722C8.18809 40.3589 8.10097 40.3523 8.01385 40.3523C7.81309 40.3523 7.63411 40.3949 7.47692 40.4801C7.32161 40.5634 7.19851 40.6799 7.1076 40.8295C7.01669 40.9773 6.97124 41.1458 6.97124 41.3352V44H6.1218ZM10.8739 44.0881C10.4648 44.0881 10.1078 43.9943 9.80291 43.8068C9.49799 43.6193 9.26125 43.357 9.09268 43.0199C8.92412 42.6828 8.83984 42.2888 8.83984 41.8381C8.83984 41.3854 8.92412 40.9896 9.09268 40.6506C9.26125 40.3116 9.49799 40.0483 9.80291 39.8608C10.1078 39.6733 10.4648 39.5795 10.8739 39.5795C11.283 39.5795 11.64 39.6733 11.945 39.8608C12.2499 40.0483 12.4866 40.3116 12.6552 40.6506C12.8237 40.9896 12.908 41.3854 12.908 41.8381C12.908 42.2888 12.8237 42.6828 12.6552 43.0199C12.4866 43.357 12.2499 43.6193 11.945 43.8068C11.64 43.9943 11.283 44.0881 10.8739 44.0881ZM10.8768 43.375C11.1419 43.375 11.3616 43.3049 11.5359 43.1648C11.7101 43.0246 11.8389 42.8381 11.9222 42.6051C12.0075 42.3722 12.0501 42.1155 12.0501 41.8352C12.0501 41.5568 12.0075 41.3011 11.9222 41.0682C11.8389 40.8333 11.7101 40.6449 11.5359 40.5028C11.3616 40.3608 11.1419 40.2898 10.8768 40.2898C10.6097 40.2898 10.3881 40.3608 10.212 40.5028C10.0378 40.6449 9.90803 40.8333 9.8228 41.0682C9.73947 41.3011 9.6978 41.5568 9.6978 41.8352C9.6978 42.1155 9.73947 42.3722 9.8228 42.6051C9.90803 42.8381 10.0378 43.0246 10.212 43.1648C10.3881 43.3049 10.6097 43.375 10.8768 43.375ZM15.4897 44.0852C15.1374 44.0852 14.823 43.9953 14.5465 43.8153C14.2719 43.6335 14.056 43.375 13.8988 43.0398C13.7435 42.7027 13.6658 42.2983 13.6658 41.8267C13.6658 41.3551 13.7444 40.9517 13.9016 40.6165C14.0607 40.2812 14.2785 40.0246 14.555 39.8466C14.8316 39.6686 15.145 39.5795 15.4954 39.5795C15.7662 39.5795 15.984 39.625 16.1488 39.7159C16.3155 39.8049 16.4442 39.9091 16.5352 40.0284C16.628 40.1477 16.6999 40.2528 16.7511 40.3438H16.8022V38.1818H17.6516V44H16.8221V43.321H16.7511C16.6999 43.4138 16.6261 43.5199 16.5295 43.6392C16.4348 43.7585 16.3041 43.8627 16.1374 43.9517C15.9708 44.0407 15.7549 44.0852 15.4897 44.0852ZM15.6772 43.3608C15.9215 43.3608 16.128 43.2964 16.2965 43.1676C16.467 43.0369 16.5958 42.8561 16.6829 42.625C16.7719 42.3939 16.8164 42.125 16.8164 41.8182C16.8164 41.5152 16.7728 41.25 16.6857 41.0227C16.5986 40.7955 16.4708 40.6184 16.3022 40.4915C16.1336 40.3646 15.9253 40.3011 15.6772 40.3011C15.4215 40.3011 15.2085 40.3674 15.038 40.5C14.8675 40.6326 14.7388 40.8134 14.6516 41.0426C14.5664 41.2718 14.5238 41.5303 14.5238 41.8182C14.5238 42.1098 14.5674 42.3722 14.6545 42.6051C14.7416 42.8381 14.8704 43.0227 15.0408 43.1591C15.2132 43.2936 15.4253 43.3608 15.6772 43.3608ZM21.6282 42.1903V39.6364H22.4805V44H21.6452V43.2443H21.5998C21.4994 43.4773 21.3384 43.6714 21.1168 43.8267C20.8971 43.9801 20.6235 44.0568 20.2958 44.0568C20.0155 44.0568 19.7674 43.9953 19.5515 43.8722C19.3375 43.7472 19.1689 43.5625 19.0458 43.3182C18.9246 43.0739 18.864 42.7718 18.864 42.4119V39.6364H19.7134V42.3097C19.7134 42.607 19.7958 42.8437 19.9606 43.0199C20.1254 43.196 20.3394 43.2841 20.6026 43.2841C20.7617 43.2841 20.9199 43.2443 21.0771 43.1648C21.2362 43.0852 21.3678 42.965 21.4719 42.804C21.578 42.643 21.6301 42.4384 21.6282 42.1903ZM25.4599 44.0881C25.0375 44.0881 24.6739 43.9924 24.369 43.8011C24.0659 43.608 23.833 43.3419 23.6701 43.0028C23.5072 42.6638 23.4258 42.2756 23.4258 41.8381C23.4258 41.3949 23.5091 41.0038 23.6758 40.6648C23.8424 40.3239 24.0773 40.0578 24.3803 39.8665C24.6834 39.6752 25.0404 39.5795 25.4513 39.5795C25.7828 39.5795 26.0782 39.6411 26.3377 39.7642C26.5972 39.8854 26.8065 40.0559 26.9656 40.2756C27.1265 40.4953 27.2222 40.7519 27.2525 41.0455H26.4258C26.3803 40.8409 26.2762 40.6648 26.1133 40.517C25.9523 40.3693 25.7364 40.2955 25.4656 40.2955C25.2288 40.2955 25.0214 40.358 24.8434 40.483C24.6673 40.6061 24.5299 40.7822 24.4315 41.0114C24.333 41.2386 24.2837 41.5076 24.2837 41.8182C24.2837 42.1364 24.332 42.411 24.4286 42.642C24.5252 42.8731 24.6616 43.0521 24.8377 43.179C25.0157 43.3059 25.225 43.3693 25.4656 43.3693C25.6265 43.3693 25.7724 43.34 25.9031 43.2812C26.0356 43.2206 26.1464 43.1345 26.2354 43.0227C26.3263 42.911 26.3898 42.7765 26.4258 42.6193H27.2525C27.2222 42.9015 27.1303 43.1534 26.9769 43.375C26.8235 43.5966 26.618 43.7708 26.3604 43.8977C26.1048 44.0246 25.8046 44.0881 25.4599 44.0881ZM30.1978 39.6364V40.3182H27.8143V39.6364H30.1978ZM28.4535 38.5909H29.3029V42.7188C29.3029 42.8835 29.3275 43.0076 29.3768 43.0909C29.426 43.1723 29.4895 43.2282 29.5671 43.2585C29.6467 43.2869 29.7328 43.3011 29.8256 43.3011C29.8938 43.3011 29.9535 43.2964 30.0046 43.2869C30.0558 43.2775 30.0955 43.2699 30.1239 43.2642L30.2773 43.9659C30.2281 43.9848 30.158 44.0038 30.0671 44.0227C29.9762 44.0436 29.8626 44.0549 29.7262 44.0568C29.5027 44.0606 29.2944 44.0208 29.1012 43.9375C28.908 43.8542 28.7518 43.7254 28.6325 43.5511C28.5131 43.3769 28.4535 43.1581 28.4535 42.8949V38.5909Z" fill="#1BBF00"/>
</svg>
