<svg width="78" height="78" viewBox="0 0 78 78" fill="none" xmlns="http://www.w3.org/2000/svg">
<path d="M58 1H20C9.50659 1 1 9.50659 1 20V58C1 68.4934 9.50659 77 20 77H58C68.4934 77 77 68.4934 77 58V20C77 9.50659 68.4934 1 58 1Z" stroke="white" stroke-width="2"/>
<path d="M30 38.9916C30 39.2852 30.053 39.5562 30.1592 39.8046C30.277 40.053 30.4538 40.2902 30.6896 40.516L44.4636 53.424C44.8644 53.808 45.3478 54 45.9136 54C46.3026 54 46.6502 53.9096 46.9568 53.729C47.275 53.5596 47.5284 53.3224 47.717 53.0176C47.9056 52.7238 48 52.3964 48 52.035C48 51.493 47.782 51.013 47.3458 50.5952L34.9332 38.9916L47.3458 27.388C47.782 26.97 48 26.4958 48 25.965C48 25.5924 47.9056 25.2592 47.717 24.9656C47.5284 24.672 47.275 24.4404 46.9568 24.271C46.6502 24.0904 46.3026 24 45.9136 24C45.3478 24 44.8644 24.1864 44.4636 24.559L30.6896 37.467C30.4538 37.6928 30.277 37.93 30.1592 38.1784C30.053 38.4268 30 38.698 30 38.9916Z" fill="white"/>
</svg>
