<svg width="40" height="40" viewBox="0 0 40 40" fill="none" xmlns="http://www.w3.org/2000/svg">
<path d="M29.5 1H10.5C5.25329 1 1 5.25329 1 10.5V29.5C1 34.7467 5.25329 39 10.5 39H29.5C34.7467 39 39 34.7467 39 29.5V10.5C39 5.25329 34.7467 1 29.5 1Z" stroke="#D8DADC"/>
<path d="M15.5 19.9958C15.5 20.1426 15.5265 20.2781 15.5796 20.4023C15.6385 20.5265 15.7269 20.6451 15.8448 20.758L22.7318 27.212C22.9322 27.404 23.1739 27.5 23.4568 27.5C23.6513 27.5 23.8251 27.4548 23.9784 27.3645C24.1375 27.2798 24.2642 27.1612 24.3585 27.0088C24.4528 26.8619 24.5 26.6982 24.5 26.5175C24.5 26.2465 24.391 26.0065 24.1729 25.7976L17.9666 19.9958L24.1729 14.194C24.391 13.985 24.5 13.7479 24.5 13.4825C24.5 13.2962 24.4528 13.1296 24.3585 12.9828C24.2642 12.836 24.1375 12.7202 23.9784 12.6355C23.8251 12.5452 23.6513 12.5 23.4568 12.5C23.1739 12.5 22.9322 12.5932 22.7318 12.7795L15.8448 19.2335C15.7269 19.3464 15.6385 19.465 15.5796 19.5892C15.5265 19.7134 15.5 19.849 15.5 19.9958Z" fill="black"/>
</svg>
