<svg width="32" height="32" viewBox="0 0 32 32" fill="none" xmlns="http://www.w3.org/2000/svg">
<path d="M25.5 1.5C25.5 2.29565 25.1839 3.05871 24.6213 3.62132C24.0587 4.18393 23.2956 4.5 22.5 4.5C21.7044 4.5 20.9413 4.18393 20.3787 3.62132C19.8161 3.05871 19.5 2.29565 19.5 1.5H14.5V6H16.5V15.5H28.5V6H30.5V1.5H25.5Z" fill="#FF6B6B"/>
<path d="M13.5 16.5V30.5H9L8 22.5H7L6 30.5H1.5V16.5H13.5Z" fill="#33415C"/>
<path d="M13.5 16.5V20.955C13.3351 20.9853 13.1677 21.0004 13 21C12.2044 21 11.4413 20.6839 10.8787 20.1213C10.3161 19.5587 10 18.7956 10 18C9.99748 17.4727 10.1374 16.9544 10.405 16.5H13.5ZM5 18C5 18.7956 4.68393 19.5587 4.12132 20.1213C3.55871 20.6839 2.79565 21 2 21C1.83231 21.0004 1.66493 20.9853 1.5 20.955V16.5H4.595C4.86259 16.9544 5.00252 17.4727 5 18Z" fill="#F9C74F"/>
<path d="M26.5 6.5H24.5V8.5H26.5V6.5Z" fill="#7CCDF4"/>
<path d="M13.5 16H1.5C1.36739 16 1.24021 16.0527 1.14645 16.1464C1.05268 16.2402 1 16.3674 1 16.5V30.5C1 30.6326 1.05268 30.7598 1.14645 30.8536C1.24021 30.9473 1.36739 31 1.5 31H6C6.12185 31 6.23949 30.9554 6.33082 30.8748C6.42215 30.7941 6.48089 30.6829 6.496 30.562L7.4415 23H7.5585L8.504 30.562C8.51911 30.6829 8.57785 30.7941 8.66918 30.8748C8.76051 30.9554 8.87815 31 9 31H13.5C13.6326 31 13.7598 30.9473 13.8536 30.8536C13.9473 30.7598 14 30.6326 14 30.5V16.5C14 16.3674 13.9473 16.2402 13.8536 16.1464C13.7598 16.0527 13.6326 16 13.5 16ZM2 17H4.2915C4.43098 17.3148 4.50205 17.6557 4.5 18C4.49921 18.6628 4.23556 19.2982 3.76689 19.7669C3.29822 20.2356 2.6628 20.4992 2 20.5V17ZM13 30H9.4415L8.496 22.438C8.48089 22.3171 8.42215 22.2059 8.33082 22.1252C8.23949 22.0446 8.12185 22 8 22H7C6.87815 22 6.76051 22.0446 6.66918 22.1252C6.57785 22.2059 6.51911 22.3171 6.504 22.438L5.5585 30H2V21.5C2.92793 21.4989 3.81756 21.1299 4.4737 20.4737C5.12985 19.8176 5.49894 18.9279 5.5 18C5.49895 17.6611 5.44842 17.3243 5.35 17H7V19C7 19.1326 7.05268 19.2598 7.14645 19.3536C7.24021 19.4473 7.36739 19.5 7.5 19.5C7.63261 19.5 7.75979 19.4473 7.85355 19.3536C7.94732 19.2598 8 19.1326 8 19V17H9.65C9.49135 17.5222 9.4575 18.0743 9.55117 18.6119C9.64484 19.1496 9.86341 19.6577 10.1893 20.0955C10.5152 20.5332 10.9393 20.8884 11.4275 21.1323C11.9156 21.3763 12.4543 21.5022 13 21.5V30ZM13 20.5C12.3372 20.4992 11.7018 20.2356 11.2331 19.7669C10.7644 19.2982 10.5008 18.6628 10.5 18C10.498 17.6557 10.569 17.3148 10.7085 17H13V20.5ZM30.5 1H25.5C25.3674 1 25.2402 1.05268 25.1464 1.14645C25.0527 1.24021 25 1.36739 25 1.5C25 2.16304 24.7366 2.79893 24.2678 3.26777C23.7989 3.73661 23.163 4 22.5 4C21.837 4 21.2011 3.73661 20.7322 3.26777C20.2634 2.79893 20 2.16304 20 1.5C20 1.36739 19.9473 1.24021 19.8536 1.14645C19.7598 1.05268 19.6326 1 19.5 1H14.5C14.3674 1 14.2402 1.05268 14.1464 1.14645C14.0527 1.24021 14 1.36739 14 1.5V6C14 6.13261 14.0527 6.25979 14.1464 6.35355C14.2402 6.44732 14.3674 6.5 14.5 6.5H16V15.5C16 15.6326 16.0527 15.7598 16.1464 15.8536C16.2402 15.9473 16.3674 16 16.5 16H28.5C28.6326 16 28.7598 15.9473 28.8536 15.8536C28.9473 15.7598 29 15.6326 29 15.5V6.5H30.5C30.6326 6.5 30.7598 6.44732 30.8536 6.35355C30.9473 6.25979 31 6.13261 31 6V1.5C31 1.36739 30.9473 1.24021 30.8536 1.14645C30.7598 1.05268 30.6326 1 30.5 1ZM30 5.5H28.5C28.3674 5.5 28.2402 5.55268 28.1464 5.64645C28.0527 5.74021 28 5.86739 28 6V15H17V6C17 5.86739 16.9473 5.74021 16.8536 5.64645C16.7598 5.55268 16.6326 5.5 16.5 5.5H15V2H19.0355C19.1551 2.83357 19.5713 3.59606 20.2077 4.1476C20.844 4.69915 21.6579 5.00277 22.5 5.00277C23.3421 5.00277 24.156 4.69915 24.7923 4.1476C25.4287 3.59606 25.8449 2.83357 25.9645 2H30V5.5Z" fill="black"/>
<path d="M24 6.5V8.5C24 8.63261 24.0527 8.75979 24.1464 8.85355C24.2402 8.94732 24.3674 9 24.5 9H26.5C26.6326 9 26.7598 8.94732 26.8536 8.85355C26.9473 8.75979 27 8.63261 27 8.5V6.5C27 6.36739 26.9473 6.24021 26.8536 6.14645C26.7598 6.05268 26.6326 6 26.5 6H24.5C24.3674 6 24.2402 6.05268 24.1464 6.14645C24.0527 6.24021 24 6.36739 24 6.5ZM25 7H26V8H25V7Z" fill="black"/>
</svg>
