<svg width="24" height="24" viewBox="0 0 24 24" fill="none" xmlns="http://www.w3.org/2000/svg">
<path d="M2 5.00004H5.545C5.6668 5.69533 6.02988 6.3254 6.57036 6.77944C7.11085 7.23347 7.79412 7.48237 8.5 7.48237C9.20588 7.48237 9.88916 7.23347 10.4296 6.77944C10.9701 6.3254 11.3332 5.69533 11.455 5.00004H22C22.1326 5.00004 22.2598 4.94736 22.3536 4.85359C22.4473 4.75982 22.5 4.63265 22.5 4.50004C22.5 4.36743 22.4473 4.24025 22.3536 4.14648C22.2598 4.05272 22.1326 4.00004 22 4.00004H11.455C11.3332 3.30474 10.9701 2.67467 10.4296 2.22064C9.88916 1.76661 9.20588 1.5177 8.5 1.5177C7.79412 1.5177 7.11085 1.76661 6.57036 2.22064C6.02988 2.67467 5.6668 3.30474 5.545 4.00004H2C1.86739 4.00004 1.74021 4.05272 1.64645 4.14648C1.55268 4.24025 1.5 4.36743 1.5 4.50004C1.5 4.63265 1.55268 4.75982 1.64645 4.85359C1.74021 4.94736 1.86739 5.00004 2 5.00004ZM8.5 2.50004C8.89556 2.50004 9.28224 2.61734 9.61114 2.8371C9.94004 3.05686 10.1964 3.36922 10.3478 3.73467C10.4991 4.10012 10.5387 4.50226 10.4616 4.89022C10.3844 5.27818 10.1939 5.63455 9.91421 5.91425C9.63451 6.19396 9.27814 6.38444 8.89018 6.46161C8.50222 6.53878 8.10009 6.49917 7.73463 6.3478C7.36918 6.19642 7.05682 5.94008 6.83706 5.61118C6.6173 5.28228 6.5 4.8956 6.5 4.50004C6.5 3.9696 6.71071 3.4609 7.08579 3.08582C7.46086 2.71075 7.96957 2.50004 8.5 2.50004ZM22 11.5H18.455C18.3332 10.8047 17.9701 10.1747 17.4296 9.72064C16.8892 9.26661 16.2059 9.0177 15.5 9.0177C14.7941 9.0177 14.1108 9.26661 13.5704 9.72064C13.0299 10.1747 12.6668 10.8047 12.545 11.5H2C1.86739 11.5 1.74021 11.5527 1.64645 11.6465C1.55268 11.7403 1.5 11.8674 1.5 12C1.5 12.1326 1.55268 12.2598 1.64645 12.3536C1.74021 12.4474 1.86739 12.5 2 12.5H12.545C12.6668 13.1953 13.0299 13.8254 13.5704 14.2794C14.1108 14.7335 14.7941 14.9824 15.5 14.9824C16.2059 14.9824 16.8892 14.7335 17.4296 14.2794C17.9701 13.8254 18.3332 13.1953 18.455 12.5H22C22.1326 12.5 22.2598 12.4474 22.3536 12.3536C22.4473 12.2598 22.5 12.1326 22.5 12C22.5 11.8674 22.4473 11.7403 22.3536 11.6465C22.2598 11.5527 22.1326 11.5 22 11.5ZM15.5 14C15.1044 14 14.7178 13.8827 14.3889 13.663C14.06 13.4432 13.8036 13.1309 13.6522 12.7654C13.5009 12.4 13.4613 11.9978 13.5384 11.6099C13.6156 11.2219 13.8061 10.8655 14.0858 10.5858C14.3655 10.3061 14.7219 10.1156 15.1098 10.0385C15.4978 9.9613 15.8999 10.0009 16.2654 10.1523C16.6308 10.3037 16.9432 10.56 17.1629 10.8889C17.3827 11.2178 17.5 11.6045 17.5 12C17.5 12.5305 17.2893 13.0392 16.9142 13.4143C16.5391 13.7893 16.0304 14 15.5 14ZM22 19H11.455C11.3332 18.3047 10.9701 17.6747 10.4296 17.2206C9.88916 16.7666 9.20588 16.5177 8.5 16.5177C7.79412 16.5177 7.11085 16.7666 6.57036 17.2206C6.02988 17.6747 5.6668 18.3047 5.545 19H2C1.86739 19 1.74021 19.0527 1.64645 19.1465C1.55268 19.2403 1.5 19.3674 1.5 19.5C1.5 19.6326 1.55268 19.7598 1.64645 19.8536C1.74021 19.9474 1.86739 20 2 20H5.545C5.6668 20.6953 6.02988 21.3254 6.57036 21.7794C7.11085 22.2335 7.79412 22.4824 8.5 22.4824C9.20588 22.4824 9.88916 22.2335 10.4296 21.7794C10.9701 21.3254 11.3332 20.6953 11.455 20H22C22.1326 20 22.2598 19.9474 22.3536 19.8536C22.4473 19.7598 22.5 19.6326 22.5 19.5C22.5 19.3674 22.4473 19.2403 22.3536 19.1465C22.2598 19.0527 22.1326 19 22 19ZM8.5 21.5C8.10444 21.5 7.71776 21.3827 7.38886 21.163C7.05996 20.9432 6.80362 20.6309 6.65224 20.2654C6.50087 19.9 6.46126 19.4978 6.53843 19.1099C6.6156 18.7219 6.80608 18.3655 7.08579 18.0858C7.36549 17.8061 7.72186 17.6156 8.10982 17.5385C8.49778 17.4613 8.89991 17.5009 9.26537 17.6523C9.63082 17.8037 9.94318 18.06 10.1629 18.3889C10.3827 18.7178 10.5 19.1045 10.5 19.5C10.5 20.0305 10.2893 20.5392 9.91421 20.9142C9.53914 21.2893 9.03043 21.5 8.5 21.5Z" fill="black"/>
</svg>
