<svg width="32" height="32" viewBox="0 0 32 32" fill="none" xmlns="http://www.w3.org/2000/svg">
<path d="M10.784 6.74541C9.45354 7.08097 9.31273 8.50763 8.34795 8.93166C7.78554 9.17885 7.11838 9.14678 6.53648 8.93166C5.5116 8.55275 4.76142 6.89728 3.7256 7.24513C2.80026 7.55588 2.33404 8.4075 2.05176 9.43138H11.4087L11.8615 7.34075C11.5334 7.22797 11.0665 6.67419 10.784 6.74544V6.74541Z" fill="#6B6C6D"/>
<path d="M3.63194 7.57307C1.67469 8.23038 1.76922 11.3044 1.32078 13.3198C1.23922 13.6862 1.25828 14.4442 1.25828 14.4442C1.25828 14.4442 2.31191 14.9895 2.88237 15.1312C3.81541 15.363 4.79594 15.3257 5.75572 15.3811C7.21141 15.4651 8.67066 15.4667 10.1282 15.506C12.5851 15.5723 15.0413 15.6973 17.499 15.6934C18.2281 15.6923 19.6852 15.6309 19.6852 15.6309C19.6852 15.6309 20.1105 15.9967 20.3724 16.0682C21.5582 16.3918 22.8359 16.0771 24.0578 15.9433C25.2999 15.8072 26.6021 15.7657 27.7431 15.2562C28.055 15.1169 28.4043 14.9379 28.5552 14.6315C28.6747 14.3887 28.6462 14.0744 28.5552 13.8195C28.4557 13.5408 28.241 13.2938 27.993 13.1324C25.495 11.5069 22.1155 11.9252 19.3729 10.7588C17.3454 9.89644 15.5666 8.53794 13.6887 7.38566C12.8271 6.857 11.1277 5.7616 11.1277 5.7616L11.0027 6.51116C11.0027 6.51116 11.9155 6.94732 11.7523 7.26075C11.5863 7.57957 11.036 6.9746 10.6904 7.07335C9.64134 7.37316 9.27322 8.86941 8.25431 9.2596C7.69041 9.47553 7.02475 9.42078 6.44284 9.2596C5.38981 8.96794 4.66778 7.22522 3.63194 7.57307Z" fill="#3B3C3D"/>
<mask id="mask0_155_151" style="mask-type:luminance" maskUnits="userSpaceOnUse" x="1" y="6" width="28" height="11">
<path d="M3.57358 8.14648C1.58756 8.75704 1.68345 11.6124 1.22843 13.4844C1.14572 13.8248 1.16505 14.5288 1.16505 14.5288C1.16505 14.5288 2.23412 15.0354 2.81299 15.1671C3.75974 15.3824 4.75468 15.3477 5.72859 15.3991C7.20565 15.4772 8.68636 15.4786 10.1654 15.5152C12.6583 15.5768 15.1506 15.6928 17.6445 15.6892C18.3843 15.6882 19.8629 15.6312 19.8629 15.6312C19.8629 15.6312 20.2943 15.971 20.5601 16.0374C21.7633 16.338 23.0598 16.0457 24.2997 15.9213C25.5601 15.7949 26.8814 15.7564 28.0392 15.2831C28.3556 15.1538 28.7101 14.9875 28.8632 14.7029C28.9845 14.4773 28.9555 14.1854 28.8632 13.9486C28.7623 13.6897 28.5444 13.4603 28.2928 13.3104C25.7581 11.8005 22.3288 12.189 19.546 11.1056C17.4887 10.3046 15.6837 9.04274 13.7782 7.97242C12.9039 7.48136 11.1795 6.46387 11.1795 6.46387L11.0527 7.16012C11.0527 7.16012 11.9789 7.56526 11.8133 7.85638C11.6449 8.15252 11.0865 7.59058 10.7358 7.68231C9.6713 7.96082 9.29781 9.35063 8.26389 9.71306C7.6917 9.91364 7.01627 9.86275 6.42579 9.71306C5.35729 9.44213 4.62462 7.82336 3.57358 8.14648Z" fill="white"/>
</mask>
<g mask="url(#mask0_155_151)">
<path d="M1.64462 10.4319C1.64462 10.4319 6.84981 13.4599 9.73102 14.2636C10.1319 14.3755 10.5655 14.4674 10.9751 14.3913C11.2532 14.3397 11.4979 14.169 11.7281 14.0082C13.3844 12.8505 14.1809 10.4086 16.1477 9.88913C16.3751 9.82908 16.663 9.89203 16.8352 10.0488C16.969 10.1705 17.0118 10.3817 16.9989 10.5597C16.965 11.0298 16.5101 11.3838 16.3769 11.8369C16.2982 12.1047 16.17 12.4095 16.2787 12.6671C16.3053 12.7301 16.3726 12.7986 16.4424 12.7948C16.9817 12.7657 17.2724 12.1046 17.5882 11.6772C17.788 11.4069 17.731 10.9107 18.0466 10.7832C18.206 10.7188 18.3855 10.8634 18.5377 10.9428C18.6474 11.0001 18.7942 11.0508 18.8323 11.1664C18.9263 11.4517 18.6338 11.7352 18.5704 12.0285C18.4819 12.438 18.2396 12.8883 18.4067 13.2738C18.4492 13.3718 18.5603 13.478 18.6686 13.4654C19.1459 13.4096 19.3273 12.7753 19.5853 12.3797C19.7216 12.1708 19.7111 11.8596 19.9127 11.7092C20.0096 11.6369 20.1533 11.6212 20.2728 11.6453C20.4655 11.6842 20.671 11.7954 20.7639 11.9646C20.975 12.3494 20.7639 13.2738 20.7639 13.2738L20.8948 13.5612L23.5139 13.8805L26.2312 13.7208C26.2312 13.7208 27.3999 13.7166 27.8026 13.3696C27.8983 13.2871 27.8119 13.0563 27.9336 13.0183C28.3372 12.8923 28.7396 13.3813 28.9812 13.7208C29.1608 13.9732 31.708 13.7108 31.5764 13.9899C31.24 14.7034 27.8192 15.4374 27.0497 15.6686C26.1131 15.95 25.1123 15.9691 24.1359 16.0517C22.7433 16.1696 19.9454 16.2114 19.9454 16.2114C19.9454 16.2114 20.2004 14.7759 19.8472 14.1998C19.8145 14.1465 19.7463 14.0939 19.6835 14.104C19.0341 14.2085 18.4067 15.5728 18.4067 15.5728H17.1299C17.1299 15.5728 18.145 13.9457 17.7192 13.2738C17.6663 13.1903 17.5198 13.1785 17.4245 13.2099C16.3974 13.5487 15.3293 15.6367 15.3293 15.6367L14.4781 15.6047C14.4781 15.6047 15.3752 13.3886 15.4275 12.2201C15.4328 12.1012 15.4743 11.9153 15.362 11.8688C15.1809 11.7939 15.0222 12.0654 14.871 12.1881C13.631 13.1942 11.4989 15.5728 11.4989 15.5728L5.90063 15.5408L1.51367 11.0706L1.74283 10.5597L1.64462 10.4319Z" fill="#B9E55D"/>
</g>
<mask id="mask1_155_151" style="mask-type:luminance" maskUnits="userSpaceOnUse" x="1" y="5" width="28" height="12">
<path d="M3.6319 7.57292C1.67466 8.23023 1.76917 11.3042 1.32074 13.3196C1.23923 13.686 1.25828 14.4439 1.25828 14.4439C1.25828 14.4439 2.31186 14.9893 2.88234 15.131C3.81536 15.3628 4.79588 15.3255 5.75567 15.3809C7.21133 15.4649 8.67057 15.4665 10.1281 15.5058C12.5849 15.5722 15.0412 15.6971 17.4989 15.6932C18.2279 15.6921 19.6851 15.6307 19.6851 15.6307C19.6851 15.6307 20.1103 15.9965 20.3722 16.068C21.558 16.3916 22.8357 16.0769 24.0575 15.9431C25.2997 15.807 26.6019 15.7655 27.7429 15.256C28.0547 15.1167 28.4041 14.9377 28.5549 14.6313C28.6745 14.3885 28.6459 14.0742 28.5549 13.8193C28.4555 13.5406 28.2408 13.2936 27.9928 13.1322C25.4948 11.5067 22.1153 11.925 19.3728 10.7586C17.3453 9.89626 15.5664 8.5378 13.6886 7.38553C12.827 6.85687 11.1276 5.76147 11.1276 5.76147L11.0026 6.51104C11.0026 6.51104 11.9154 6.94719 11.7522 7.2606C11.5862 7.57942 11.0359 6.97446 10.6903 7.07321C9.64123 7.37304 9.27316 8.86926 8.25422 9.25944C7.69033 9.47538 7.02468 9.4206 6.44277 9.25944C5.38976 8.96777 4.66771 7.22506 3.6319 7.57292Z" fill="white"/>
</mask>
<g mask="url(#mask1_155_151)">
<path d="M1.07097 14.5064C0.871524 14.1863 1.1082 13.7488 1.1959 13.382C1.40275 12.5169 1.33154 11.2261 1.33154 11.2261C1.33154 11.2261 3.97991 11.7482 4.8188 12.3202C5.42897 12.7362 6.04996 13.1754 6.50532 13.7568C6.87854 14.2333 7.90697 15.5767 7.58235 16.0876C7.13554 16.7908 5.56155 15.6412 4.73047 15.5834C3.99871 15.5326 3.78849 15.5889 3.07425 15.4219C2.53556 15.296 1.36358 14.9759 1.07097 14.5064Z" fill="#24E1EE"/>
</g>
<path d="M1.19657 14.1942C2.0151 13.7243 2.96204 14.8983 3.891 15.0687C5.1456 15.2988 6.43829 15.2172 7.71335 15.2561C11.1792 15.3618 14.6487 15.2962 18.1151 15.381C18.6793 15.3948 19.2791 15.2446 19.807 15.4435C20.0847 15.5481 20.3397 15.6942 20.6216 15.787C22.2894 16.3363 24.1541 15.8656 25.8851 15.5684C28.2799 15.4619 29.1109 13.0057 29.0808 14.8813C28.9789 15.3854 28.6568 15.857 28.2663 16.193C27.5084 16.8451 26.4685 17.095 25.5091 17.3799C24.4527 17.6935 23.349 17.848 22.2508 17.942C20.1905 18.1185 18.1148 17.9768 16.0473 17.942C14.1875 17.9108 12.3304 17.7646 10.4704 17.7546C8.65279 17.745 6.83532 17.9461 5.01891 17.8796C4.36882 17.8558 3.70547 17.8572 3.07641 17.6922C2.67854 17.5878 2.28766 17.4247 1.9485 17.1925C1.705 17.0258 1.46232 16.8269 1.32188 16.5678C1.07844 16.1188 1.00713 15.5791 1.00857 15.0687C1.00941 14.7706 0.937411 14.343 1.19657 14.1942Z" fill="#6B6C6D"/>
<path d="M7.31738 15.1936L19.7478 15.3186L21.1267 15.9284C21.1267 15.9284 24.8102 15.8205 26.6776 15.3999C27.3566 15.247 28.0144 14.8069 28.4228 14.4283C28.653 14.2149 28.812 13.845 28.812 13.845C28.812 13.845 29.2134 14.4304 29.107 14.7188C28.7894 15.5798 27.6425 15.9456 26.7438 16.1306C26.4351 16.1941 25.8068 16.0057 25.8068 16.0057L25.3695 16.3805L24.62 16.0681L24.0578 16.6928L23.4331 16.4429L22.9334 16.8802L22.2463 16.5054L21.7466 16.8802L20.997 16.5054L20.6223 16.8802L8.75407 16.1306L7.31738 15.1936Z" fill="#24E1EE"/>
<path d="M20.4082 11.9235L19.2187 10.7019C16.2243 8.83224 14.0549 7.71249 11.1216 5.75696L11.0278 6.52258C14.0725 8.44665 17.2476 10.184 20.4082 11.9235Z" fill="#384241"/>
<path d="M13.0003 8.53423C12.9431 8.30548 13.2019 8.08945 13.3846 7.94032C13.6073 7.75839 13.9122 7.5447 14.1881 7.62589C14.4362 7.69886 14.5455 8.01495 14.6423 8.25473C14.7348 8.48379 14.919 8.81101 14.7471 8.98842C14.6737 9.06414 14.5173 9.01629 14.4327 8.95348C14.3614 8.90064 14.3426 8.79639 14.3278 8.70892C14.3007 8.54773 14.3946 8.3801 14.3628 8.21979C14.3374 8.0921 14.3121 7.91017 14.1881 7.87042C13.9748 7.80207 13.7528 8.0267 13.5942 8.18485C13.454 8.32464 13.5046 8.65289 13.3147 8.70892C13.1997 8.74286 13.0293 8.65054 13.0003 8.53423ZM15.5247 8.93992C15.4646 9.11273 15.8225 9.33554 15.9666 9.35976C16.1107 9.38398 16.0691 9.19701 16.2097 9.24926C16.3503 9.30151 16.4421 9.63614 16.4748 9.82379C16.5076 10.0114 16.3873 10.213 16.4307 10.332C16.474 10.4511 16.5188 10.5039 16.6074 10.5088C16.6961 10.5137 16.7704 10.4713 16.8284 10.332C16.8864 10.1928 16.8021 9.89061 16.7621 9.71329C16.7221 9.53601 16.7293 9.42429 16.6074 9.27139C16.4856 9.11845 16.2042 8.94214 16.0108 8.89573C15.8174 8.84929 15.5848 8.7671 15.5247 8.93992ZM17.0052 10.0448L17.5797 9.89007L17.4029 9.75751L18.2647 10.2216L18.1984 10.3099L18.6625 11.1496L18.552 11.459H18.3531L18.1542 11.0391L17.8007 10.2436L17.5134 10.3541L17.0052 10.0448ZM18.7729 10.8403L19.3033 10.6414L19.8115 10.9729L19.9883 11.0833L20.3639 11.0612L20.5186 12.0777L20.2534 12.144L20.0325 11.3927L19.6789 11.2601L19.5022 10.7298L19.5905 11.0612L19.2591 11.1275L18.7729 10.8403Z" fill="#6B6C6D"/>
<path d="M21.216 14.9596C22.5465 15.2952 22.6873 16.7219 23.6521 17.1459C24.2145 17.3931 24.8816 17.361 25.4635 17.1459C26.4884 16.767 27.2386 15.1115 28.2744 15.4594C29.1997 15.7701 29.666 16.6217 29.9482 17.6456H20.5913L20.1385 15.555C20.4666 15.4422 20.9335 14.8884 21.216 14.9597V14.9596Z" fill="#6B6C6D"/>
<path d="M28.3681 15.7873C30.3253 16.4446 30.2308 19.5186 30.6792 21.534C30.7608 21.9004 30.7417 22.6584 30.7417 22.6584C30.7417 22.6584 29.6881 23.2038 29.1176 23.3455C28.1846 23.5773 27.2041 23.5399 26.2443 23.5953C24.7886 23.6793 23.3293 23.6809 21.8718 23.7203C19.4149 23.7866 16.9587 23.9115 14.501 23.9076C13.7719 23.9065 12.3148 23.8452 12.3148 23.8452C12.3148 23.8452 11.8895 24.211 11.6276 24.2824C10.4418 24.606 9.16409 24.2914 7.94225 24.1575C6.70006 24.0214 5.39788 23.98 4.25688 23.4704C3.94503 23.3311 3.59569 23.1521 3.44481 22.8458C3.32525 22.6029 3.35381 22.2886 3.44481 22.0337C3.54431 21.755 3.75897 21.508 4.007 21.3466C6.505 19.7211 9.8845 20.1394 12.6271 18.973C14.6546 18.1107 16.4334 16.7522 18.3113 15.5999C19.1729 15.0712 20.8723 13.9758 20.8723 13.9758L20.9973 14.7254C20.9973 14.7254 20.0845 15.1615 20.2477 15.475C20.4137 15.7938 20.964 15.1888 21.3096 15.2876C22.3587 15.5874 22.7268 17.0836 23.7457 17.4738C24.3096 17.6898 24.9753 17.635 25.5572 17.4738C26.6102 17.1822 27.3322 15.4395 28.3681 15.7873Z" fill="#3B3C3D"/>
<mask id="mask2_155_151" style="mask-type:luminance" maskUnits="userSpaceOnUse" x="3" y="14" width="28" height="11">
<path d="M28.4264 16.3607C30.4124 16.9713 30.3165 19.8266 30.7716 21.6987C30.8543 22.039 30.835 22.7431 30.835 22.7431C30.835 22.7431 29.7659 23.2497 29.187 23.3813C28.2403 23.5966 27.2453 23.5619 26.2714 23.6134C24.7943 23.6914 23.3136 23.6929 21.8346 23.7294C19.3417 23.791 16.8494 23.9071 14.3555 23.9035C13.6157 23.9024 12.1371 23.8455 12.1371 23.8455C12.1371 23.8455 11.7057 24.1852 11.4399 24.2516C10.2367 24.5522 8.94017 24.2599 7.70034 24.1356C6.43988 24.0092 5.11858 23.9706 3.96077 23.4973C3.64437 23.368 3.28987 23.2017 3.1368 22.9171C3.01546 22.6916 3.04445 22.3996 3.1368 22.1628C3.23774 21.904 3.45555 21.6745 3.70724 21.5246C6.24194 20.0147 9.67116 20.4033 12.454 19.3198C14.5113 18.5188 16.3163 17.257 18.2218 16.1867C19.0961 15.6956 20.8205 14.6781 20.8205 14.6781L20.9473 15.3744C20.9473 15.3744 20.0211 15.7795 20.1867 16.0706C20.3551 16.3668 20.9135 15.8048 21.2642 15.8965C22.3287 16.175 22.7022 17.5649 23.7361 17.9273C24.3083 18.1279 24.9837 18.077 25.5742 17.9273C26.6427 17.6564 27.3754 16.0376 28.4264 16.3607Z" fill="white"/>
</mask>
<g mask="url(#mask2_155_151)">
<path d="M30.3554 18.6462C30.3554 18.6462 25.1502 21.6742 22.269 22.4778C21.8681 22.5897 21.4345 22.6816 21.0249 22.6056C20.7468 22.554 20.5021 22.3832 20.2719 22.2224C18.6156 21.0648 17.8191 18.6229 15.8523 18.1034C15.6249 18.0433 15.337 18.1063 15.1648 18.263C15.031 18.3847 14.9882 18.5959 15.0011 18.7739C15.035 19.2441 15.4899 19.5981 15.6231 20.0511C15.7018 20.3189 15.83 20.6238 15.7213 20.8813C15.6947 20.9443 15.6274 21.0128 15.5576 21.009C15.0183 20.9799 14.7276 20.3189 14.4118 19.8915C14.212 19.6212 14.269 19.1249 13.9534 18.9974C13.794 18.933 13.6145 19.0777 13.4623 19.1571C13.3526 19.2143 13.2058 19.265 13.1677 19.3806C13.0737 19.6659 13.3662 19.9494 13.4296 20.2427C13.5181 20.6522 13.7604 21.1025 13.5933 21.488C13.5508 21.5861 13.4397 21.6922 13.3314 21.6796C12.8541 21.6239 12.6727 20.9895 12.4147 20.594C12.2784 20.3851 12.2889 20.0739 12.0873 19.9234C11.9904 19.8511 11.8467 19.8354 11.7272 19.8596C11.5345 19.8984 11.329 20.0097 11.2361 20.1788C11.025 20.5636 11.2361 21.488 11.2361 21.488L11.1052 21.7754L8.4861 22.0947L5.7688 21.935C5.7688 21.935 4.60009 21.9309 4.19736 21.5838C4.10165 21.5013 4.18807 21.2705 4.06641 21.2326C3.66282 21.1065 3.26041 21.5955 3.01879 21.935C2.8392 22.1874 0.29195 21.925 0.423565 22.2041C0.760031 22.9176 4.18078 23.6516 4.95034 23.8828C5.88695 24.1642 6.88772 24.1834 7.86407 24.266C9.25674 24.3838 12.0546 24.4256 12.0546 24.4256C12.0546 24.4256 11.7996 22.9901 12.1528 22.414C12.1855 22.3607 12.2537 22.3081 12.3165 22.3182C12.9659 22.4227 13.5933 23.787 13.5933 23.787H14.8701C14.8701 23.787 13.855 22.16 14.2808 21.488C14.3337 21.4045 14.4802 21.3927 14.5755 21.4242C15.6026 21.7629 16.6707 23.8509 16.6707 23.8509L17.5219 23.819C17.5219 23.819 16.6248 21.6029 16.5725 20.4343C16.5672 20.3154 16.5257 20.1296 16.638 20.0831C16.8191 20.0081 16.9778 20.2797 17.129 20.4024C18.369 21.4084 20.5011 23.787 20.5011 23.787L26.0994 23.7551L30.4863 19.2848L30.2572 18.7739L30.3554 18.6462Z" fill="#B9E55D"/>
</g>
<mask id="mask3_155_151" style="mask-type:luminance" maskUnits="userSpaceOnUse" x="3" y="13" width="28" height="12">
<path d="M28.3681 15.7872C30.3253 16.4445 30.2308 19.5184 30.6793 21.5338C30.7608 21.9002 30.7417 22.6582 30.7417 22.6582C30.7417 22.6582 29.6881 23.2036 29.1177 23.3453C28.1846 23.5771 27.2041 23.5398 26.2443 23.5951C24.7887 23.6791 23.3294 23.6807 21.8719 23.7201C19.4151 23.7864 16.9588 23.9113 14.5011 23.9074C13.7721 23.9063 12.3149 23.845 12.3149 23.845C12.3149 23.845 11.8897 24.2108 11.6278 24.2822C10.442 24.6059 9.1643 24.2912 7.94245 24.1573C6.70027 24.0212 5.39812 23.9797 4.25709 23.4702C3.94527 23.331 3.59591 23.1519 3.44506 22.8456C3.32547 22.6027 3.35405 22.2884 3.44506 22.0335C3.54453 21.7548 3.75919 21.5078 4.00723 21.3464C6.50519 19.7209 9.8847 20.1392 12.6272 18.9728C14.6547 18.1105 16.4336 16.752 18.3114 15.5998C19.173 15.0711 20.8724 13.9757 20.8724 13.9757L20.9974 14.7253C20.9974 14.7253 20.0846 15.1614 20.2478 15.4748C20.4138 15.7937 20.9641 15.1887 21.3097 15.2874C22.3588 15.5873 22.7268 17.0835 23.7458 17.4737C24.3097 17.6896 24.9753 17.6348 25.5572 17.4737C26.6102 17.182 27.3323 15.4393 28.3681 15.7872Z" fill="white"/>
</mask>
<g mask="url(#mask3_155_151)">
<path d="M30.929 22.7206C31.1285 22.4006 30.8918 21.963 30.8041 21.5962C30.5973 20.7312 30.6685 19.4403 30.6685 19.4403C30.6685 19.4403 28.0201 19.9624 27.1812 20.5344C26.571 20.9504 25.95 21.3897 25.4947 21.9711C25.1215 22.4476 24.093 23.791 24.4177 24.3018C24.8645 25.005 26.4384 23.8554 27.2695 23.7977C28.0013 23.7468 28.2115 23.8032 28.9258 23.6362C29.4644 23.5102 30.6364 23.1901 30.929 22.7206Z" fill="#24E1EE"/>
</g>
<path d="M30.8034 22.4086C29.9849 21.9387 29.038 23.1127 28.109 23.2831C26.8544 23.5132 25.5617 23.4315 24.2867 23.4704C20.8208 23.5762 17.3513 23.5106 13.8849 23.5954C13.3207 23.6092 12.7209 23.4589 12.193 23.6578C11.9153 23.7625 11.6603 23.9086 11.3784 24.0014C9.71062 24.5507 7.8459 24.08 6.1149 23.7827C3.72012 23.6762 2.88912 21.2201 2.91915 23.0957C3.02106 23.5998 3.34321 24.0714 3.73375 24.4074C4.49156 25.0594 5.53146 25.3093 6.49087 25.5942C7.54728 25.9079 8.65103 26.0623 9.74924 26.1564C11.8095 26.3328 13.8852 26.1911 15.9527 26.1564C17.8125 26.1252 19.6696 25.9789 21.5296 25.969C23.3472 25.9593 25.1647 26.1605 26.9811 26.0939C27.6312 26.0701 28.2945 26.0716 28.9236 25.9066C29.3215 25.8022 29.7123 25.639 30.0515 25.4068C30.295 25.2401 30.5377 25.0412 30.6781 24.7822C30.9216 24.3331 30.9929 23.7935 30.9914 23.2831C30.9906 22.9849 31.0626 22.5573 30.8034 22.4086Z" fill="#6B6C6D"/>
<path d="M24.6826 23.408L12.2522 23.5329L10.8733 24.1427C10.8733 24.1427 7.18983 24.0348 5.3224 23.6143C4.64343 23.4614 3.98555 23.0213 3.57718 22.6427C3.34702 22.4293 3.18799 22.0593 3.18799 22.0593C3.18799 22.0593 2.78662 22.6447 2.89299 22.9332C3.21055 23.7941 4.35746 24.16 5.25624 24.3449C5.56487 24.4085 6.19321 24.22 6.19321 24.22L6.63046 24.5948L7.38002 24.2825L7.94221 24.9071L8.56687 24.6573L9.06655 25.0945L9.75368 24.7197L10.2534 25.0945L11.003 24.7197L11.3777 25.0945L23.2459 24.3449L24.6826 23.408Z" fill="#24E1EE"/>
<path d="M11.5918 20.1377L12.7813 18.9161C15.7757 17.0465 17.9451 15.9267 20.8784 13.9712L20.9722 14.7368C17.9275 16.6609 14.7524 18.3982 11.5918 20.1377Z" fill="#384241"/>
<path d="M18.9997 16.7485C19.0569 16.5197 18.7981 16.3037 18.6154 16.1546C18.3927 15.9726 18.0878 15.7589 17.8119 15.8401C17.5638 15.9131 17.4545 16.2292 17.3577 16.469C17.2652 16.698 17.081 17.0252 17.2529 17.2027C17.3263 17.2784 17.4827 17.2305 17.5673 17.1677C17.6386 17.1149 17.6574 17.0106 17.6722 16.9232C17.6993 16.762 17.6054 16.5943 17.6372 16.434C17.6626 16.3063 17.6879 16.1244 17.8119 16.0847C18.0252 16.0163 18.2472 16.2409 18.4058 16.3991C18.546 16.5389 18.4954 16.8671 18.6853 16.9232C18.8003 16.9571 18.9707 16.8648 18.9997 16.7485ZM16.4753 17.1542C16.5354 17.327 16.1775 17.5498 16.0334 17.574C15.8893 17.5982 15.9309 17.4112 15.7903 17.4635C15.6497 17.5157 15.5579 17.8504 15.5252 18.038C15.4924 18.2257 15.6127 18.4272 15.5693 18.5463C15.526 18.6653 15.4812 18.7182 15.3926 18.723C15.3039 18.728 15.2296 18.6855 15.1716 18.5463C15.1136 18.407 15.1979 18.1048 15.2379 17.9275C15.2779 17.7502 15.2707 17.6385 15.3926 17.4856C15.5144 17.3327 15.7958 17.1564 15.9892 17.11C16.1826 17.0635 16.4152 16.9813 16.4753 17.1542ZM14.9948 18.259L14.4203 18.1043L14.5971 17.9717L13.7353 18.4358L13.8016 18.5242L13.3375 19.3639L13.448 19.6732H13.6469L13.8458 19.2534L14.1993 18.4579L14.4866 18.5684L14.9948 18.259ZM13.2271 19.0545L12.6967 18.8556L12.1885 19.1871L12.0117 19.2976L11.6361 19.2755L11.4814 20.2919L11.7466 20.3582L11.9675 19.6069L12.3211 19.4743L12.4978 18.944L12.4095 19.2755L12.7409 19.3417L13.2271 19.0545Z" fill="#6B6C6D"/>
</svg>
