<svg width="160" height="48" viewBox="0 0 160 48" fill="none" xmlns="http://www.w3.org/2000/svg">
<rect width="160" height="48" rx="8" fill="#900000"/>
<path d="M50.6406 26.0703C50.6406 25.8359 50.6042 25.6276 50.5312 25.4453C50.4635 25.263 50.3411 25.0964 50.1641 24.9453C49.987 24.7943 49.737 24.6484 49.4141 24.5078C49.0964 24.362 48.6901 24.2135 48.1953 24.0625C47.6536 23.8958 47.1536 23.7109 46.6953 23.5078C46.2422 23.2995 45.8464 23.0599 45.5078 22.7891C45.1693 22.513 44.9062 22.1979 44.7188 21.8438C44.5312 21.4844 44.4375 21.0703 44.4375 20.6016C44.4375 20.138 44.5339 19.7161 44.7266 19.3359C44.9245 18.9557 45.2031 18.6276 45.5625 18.3516C45.9271 18.0703 46.3568 17.8542 46.8516 17.7031C47.3464 17.5469 47.8932 17.4688 48.4922 17.4688C49.3359 17.4688 50.0625 17.625 50.6719 17.9375C51.2865 18.25 51.7578 18.6693 52.0859 19.1953C52.4193 19.7214 52.5859 20.3021 52.5859 20.9375H50.6406C50.6406 20.5625 50.5599 20.2318 50.3984 19.9453C50.2422 19.6536 50.0026 19.4245 49.6797 19.2578C49.362 19.0911 48.9583 19.0078 48.4688 19.0078C48.0052 19.0078 47.6198 19.0781 47.3125 19.2188C47.0052 19.3594 46.776 19.5495 46.625 19.7891C46.474 20.0286 46.3984 20.2995 46.3984 20.6016C46.3984 20.8151 46.4479 21.0104 46.5469 21.1875C46.6458 21.3594 46.7969 21.5208 47 21.6719C47.2031 21.8177 47.4583 21.9557 47.7656 22.0859C48.0729 22.2161 48.4349 22.3411 48.8516 22.4609C49.4818 22.6484 50.0312 22.8568 50.5 23.0859C50.9688 23.3099 51.3594 23.5651 51.6719 23.8516C51.9844 24.138 52.2188 24.4635 52.375 24.8281C52.5312 25.1875 52.6094 25.5964 52.6094 26.0547C52.6094 26.5339 52.513 26.9661 52.3203 27.3516C52.1276 27.7318 51.8516 28.0573 51.4922 28.3281C51.138 28.5938 50.7109 28.7995 50.2109 28.9453C49.7161 29.0859 49.1641 29.1562 48.5547 29.1562C48.0078 29.1562 47.4688 29.0833 46.9375 28.9375C46.4115 28.7917 45.9323 28.5703 45.5 28.2734C45.0677 27.9714 44.724 27.5964 44.4688 27.1484C44.2135 26.6953 44.0859 26.1667 44.0859 25.5625H46.0469C46.0469 25.9323 46.1094 26.2474 46.2344 26.5078C46.3646 26.7682 46.5443 26.9818 46.7734 27.1484C47.0026 27.3099 47.2682 27.4297 47.5703 27.5078C47.8776 27.5859 48.2057 27.625 48.5547 27.625C49.013 27.625 49.3958 27.5599 49.7031 27.4297C50.0156 27.2995 50.25 27.1172 50.4062 26.8828C50.5625 26.6484 50.6406 26.3776 50.6406 26.0703ZM56.0156 17V29H54.1406V17H56.0156ZM55.6875 24.4609L55.0781 24.4531C55.0833 23.8698 55.1641 23.3307 55.3203 22.8359C55.4818 22.3411 55.7057 21.9115 55.9922 21.5469C56.2839 21.1771 56.6328 20.8932 57.0391 20.6953C57.4453 20.4922 57.8958 20.3906 58.3906 20.3906C58.8073 20.3906 59.1823 20.4479 59.5156 20.5625C59.8542 20.6771 60.1458 20.862 60.3906 21.1172C60.6354 21.3672 60.8203 21.6953 60.9453 22.1016C61.0755 22.5026 61.1406 22.9922 61.1406 23.5703V29H59.25V23.5547C59.25 23.1484 59.1901 22.8255 59.0703 22.5859C58.9557 22.3464 58.7865 22.1745 58.5625 22.0703C58.3385 21.9609 58.0651 21.9062 57.7422 21.9062C57.4036 21.9062 57.1042 21.974 56.8438 22.1094C56.5885 22.2448 56.375 22.4297 56.2031 22.6641C56.0312 22.8984 55.901 23.1693 55.8125 23.4766C55.7292 23.7839 55.6875 24.112 55.6875 24.4609ZM62.6875 24.8672V24.6875C62.6875 24.0781 62.776 23.513 62.9531 22.9922C63.1302 22.4661 63.3854 22.0104 63.7188 21.625C64.0573 21.2344 64.4688 20.9323 64.9531 20.7188C65.4427 20.5 65.9948 20.3906 66.6094 20.3906C67.2292 20.3906 67.7812 20.5 68.2656 20.7188C68.7552 20.9323 69.1693 21.2344 69.5078 21.625C69.8464 22.0104 70.1042 22.4661 70.2812 22.9922C70.4583 23.513 70.5469 24.0781 70.5469 24.6875V24.8672C70.5469 25.4766 70.4583 26.0417 70.2812 26.5625C70.1042 27.0833 69.8464 27.5391 69.5078 27.9297C69.1693 28.3151 68.7578 28.6172 68.2734 28.8359C67.7891 29.0495 67.2396 29.1562 66.625 29.1562C66.0052 29.1562 65.4505 29.0495 64.9609 28.8359C64.4766 28.6172 64.0651 28.3151 63.7266 27.9297C63.388 27.5391 63.1302 27.0833 62.9531 26.5625C62.776 26.0417 62.6875 25.4766 62.6875 24.8672ZM64.5703 24.6875V24.8672C64.5703 25.2474 64.6094 25.6068 64.6875 25.9453C64.7656 26.2839 64.888 26.5807 65.0547 26.8359C65.2214 27.0911 65.4349 27.2917 65.6953 27.4375C65.9557 27.5833 66.2656 27.6562 66.625 27.6562C66.974 27.6562 67.276 27.5833 67.5312 27.4375C67.7917 27.2917 68.0052 27.0911 68.1719 26.8359C68.3385 26.5807 68.4609 26.2839 68.5391 25.9453C68.6224 25.6068 68.6641 25.2474 68.6641 24.8672V24.6875C68.6641 24.3125 68.6224 23.9583 68.5391 23.625C68.4609 23.2865 68.3359 22.987 68.1641 22.7266C67.9974 22.4661 67.7839 22.263 67.5234 22.1172C67.2682 21.9661 66.9635 21.8906 66.6094 21.8906C66.2552 21.8906 65.9479 21.9661 65.6875 22.1172C65.4323 22.263 65.2214 22.4661 65.0547 22.7266C64.888 22.987 64.7656 23.2865 64.6875 23.625C64.6094 23.9583 64.5703 24.3125 64.5703 24.6875ZM74.0156 22.1719V32.25H72.1328V20.5469H73.8672L74.0156 22.1719ZM79.5234 24.6953V24.8594C79.5234 25.474 79.4505 26.0443 79.3047 26.5703C79.1641 27.0911 78.9531 27.5469 78.6719 27.9375C78.3958 28.3229 78.0547 28.6224 77.6484 28.8359C77.2422 29.0495 76.7734 29.1562 76.2422 29.1562C75.7161 29.1562 75.2552 29.0599 74.8594 28.8672C74.4688 28.6693 74.138 28.3906 73.8672 28.0312C73.5964 27.6719 73.3776 27.25 73.2109 26.7656C73.0495 26.276 72.9349 25.7396 72.8672 25.1562V24.5234C72.9349 23.9036 73.0495 23.3411 73.2109 22.8359C73.3776 22.3307 73.5964 21.8958 73.8672 21.5312C74.138 21.1667 74.4688 20.8854 74.8594 20.6875C75.25 20.4896 75.7057 20.3906 76.2266 20.3906C76.7578 20.3906 77.2292 20.4948 77.6406 20.7031C78.0521 20.9062 78.3984 21.1979 78.6797 21.5781C78.9609 21.9531 79.1719 22.4062 79.3125 22.9375C79.4531 23.4635 79.5234 24.0495 79.5234 24.6953ZM77.6406 24.8594V24.6953C77.6406 24.3047 77.6042 23.9427 77.5312 23.6094C77.4583 23.2708 77.3438 22.974 77.1875 22.7188C77.0312 22.4635 76.8307 22.2656 76.5859 22.125C76.3464 21.9792 76.0573 21.9062 75.7188 21.9062C75.3854 21.9062 75.099 21.9635 74.8594 22.0781C74.6198 22.1875 74.4193 22.3411 74.2578 22.5391C74.0964 22.737 73.9714 22.9688 73.8828 23.2344C73.7943 23.4948 73.7318 23.7786 73.6953 24.0859V25.6016C73.7578 25.9766 73.8646 26.3203 74.0156 26.6328C74.1667 26.9453 74.3802 27.1953 74.6562 27.3828C74.9375 27.5651 75.2969 27.6562 75.7344 27.6562C76.0729 27.6562 76.362 27.5833 76.6016 27.4375C76.8411 27.2917 77.0365 27.0911 77.1875 26.8359C77.3438 26.5755 77.4583 26.276 77.5312 25.9375C77.6042 25.599 77.6406 25.2396 77.6406 24.8594ZM94.3203 17.625V29H92.3594L87.2578 20.8516V29H85.2969V17.625H87.2578L92.375 25.7891V17.625H94.3203ZM96.1094 24.8672V24.6875C96.1094 24.0781 96.1979 23.513 96.375 22.9922C96.5521 22.4661 96.8073 22.0104 97.1406 21.625C97.4792 21.2344 97.8906 20.9323 98.375 20.7188C98.8646 20.5 99.4167 20.3906 100.031 20.3906C100.651 20.3906 101.203 20.5 101.688 20.7188C102.177 20.9323 102.591 21.2344 102.93 21.625C103.268 22.0104 103.526 22.4661 103.703 22.9922C103.88 23.513 103.969 24.0781 103.969 24.6875V24.8672C103.969 25.4766 103.88 26.0417 103.703 26.5625C103.526 27.0833 103.268 27.5391 102.93 27.9297C102.591 28.3151 102.18 28.6172 101.695 28.8359C101.211 29.0495 100.661 29.1562 100.047 29.1562C99.4271 29.1562 98.8724 29.0495 98.3828 28.8359C97.8984 28.6172 97.487 28.3151 97.1484 27.9297C96.8099 27.5391 96.5521 27.0833 96.375 26.5625C96.1979 26.0417 96.1094 25.4766 96.1094 24.8672ZM97.9922 24.6875V24.8672C97.9922 25.2474 98.0312 25.6068 98.1094 25.9453C98.1875 26.2839 98.3099 26.5807 98.4766 26.8359C98.6432 27.0911 98.8568 27.2917 99.1172 27.4375C99.3776 27.5833 99.6875 27.6562 100.047 27.6562C100.396 27.6562 100.698 27.5833 100.953 27.4375C101.214 27.2917 101.427 27.0911 101.594 26.8359C101.76 26.5807 101.883 26.2839 101.961 25.9453C102.044 25.6068 102.086 25.2474 102.086 24.8672V24.6875C102.086 24.3125 102.044 23.9583 101.961 23.625C101.883 23.2865 101.758 22.987 101.586 22.7266C101.419 22.4661 101.206 22.263 100.945 22.1172C100.69 21.9661 100.385 21.8906 100.031 21.8906C99.6771 21.8906 99.3698 21.9661 99.1094 22.1172C98.8542 22.263 98.6432 22.4661 98.4766 22.7266C98.3099 22.987 98.1875 23.2865 98.1094 23.625C98.0312 23.9583 97.9922 24.3125 97.9922 24.6875ZM107.844 27.125L109.797 20.5469H111L110.672 22.5156L108.703 29H107.625L107.844 27.125ZM106.695 20.5469L108.219 27.1562L108.344 29H107.141L104.852 20.5469H106.695ZM112.828 27.0781L114.305 20.5469H116.141L113.859 29H112.656L112.828 27.0781ZM111.203 20.5469L113.133 27.0469L113.375 29H112.297L110.305 22.5078L109.977 20.5469H111.203Z" fill="white"/>
</svg>
