<svg width="201" height="51" viewBox="0 0 201 51" fill="none" xmlns="http://www.w3.org/2000/svg">
<g clip-path="url(#clip0_106_1784)">
<mask id="mask0_106_1784" style="mask-type:luminance" maskUnits="userSpaceOnUse" x="0" y="0" width="51" height="51">
<path d="M25.5 51C39.5833 51 51 39.5833 51 25.5C51 11.4167 39.5833 0 25.5 0C11.4167 0 0 11.4167 0 25.5C0 39.5833 11.4167 51 25.5 51Z" fill="white"/>
</mask>
<g mask="url(#mask0_106_1784)">
<path d="M10.957 103.195C41.214 103.195 65.7422 78.6672 65.7422 48.4102C65.7422 18.1531 41.214 -6.375 10.957 -6.375C-19.3 -6.375 -43.8281 18.1531 -43.8281 48.4102C-43.8281 78.6672 -19.3 103.195 10.957 103.195Z" fill="url(#paint0_radial_106_1784)"/>
</g>
<path d="M32.6719 20.3203C33.7721 20.3203 34.6641 19.4284 34.6641 18.3281C34.6641 17.2279 33.7721 16.3359 32.6719 16.3359C31.5716 16.3359 30.6797 17.2279 30.6797 18.3281C30.6797 19.4284 31.5716 20.3203 32.6719 20.3203Z" fill="white"/>
<path d="M25.5 19.125C24.2391 19.125 23.0066 19.4989 21.9582 20.1994C20.9099 20.8999 20.0928 21.8955 19.6103 23.0604C19.1278 24.2253 19.0015 25.5071 19.2475 26.7437C19.4935 27.9803 20.1006 29.1162 20.9922 30.0078C21.8838 30.8994 23.0197 31.5065 24.2563 31.7525C25.4929 31.9985 26.7747 31.8722 27.9396 31.3897C29.1045 30.9072 30.1001 30.0901 30.8006 29.0418C31.5011 27.9934 31.875 26.7609 31.875 25.5C31.875 23.8092 31.2034 22.1877 30.0078 20.9922C28.8123 19.7966 27.1908 19.125 25.5 19.125ZM25.5 28.6875C24.8696 28.6875 24.2533 28.5006 23.7291 28.1503C23.2049 27.8001 22.7964 27.3022 22.5551 26.7198C22.3139 26.1374 22.2508 25.4965 22.3737 24.8781C22.4967 24.2598 22.8003 23.6919 23.2461 23.2461C23.6919 22.8003 24.2598 22.4967 24.8782 22.3737C25.4965 22.2508 26.1374 22.3139 26.7198 22.5551C27.3022 22.7964 27.8001 23.2049 28.1503 23.7291C28.5006 24.2533 28.6875 24.8696 28.6875 25.5C28.6875 26.3454 28.3517 27.1561 27.7539 27.7539C27.1561 28.3517 26.3454 28.6875 25.5 28.6875Z" fill="white"/>
<path d="M33.4688 12.75H17.5312C14.8906 12.75 12.75 14.8906 12.75 17.5312V33.4688C12.75 36.1094 14.8906 38.25 17.5312 38.25H33.4688C36.1094 38.25 38.25 36.1094 38.25 33.4688V17.5312C38.25 14.8906 36.1094 12.75 33.4688 12.75Z" stroke="white" stroke-width="3.1875" stroke-miterlimit="10"/>
</g>
<g clip-path="url(#clip1_106_1784)">
<circle cx="100.5" cy="25.5" r="25.5" fill="black"/>
<path d="M109.558 11.25H114.388L103.836 23.3109L116.25 39.7231H106.53L98.9164 29.7692L90.2051 39.7231H85.372L96.659 26.8226L84.75 11.25H94.717L101.599 20.3483L109.558 11.25ZM107.863 36.832H110.539L93.2627 13.9893H90.3906L107.863 36.832Z" fill="white"/>
</g>
<g clip-path="url(#clip2_106_1784)">
<g clip-path="url(#clip3_106_1784)">
<path d="M201 25.5C201 11.4167 189.583 0 175.5 0C161.417 0 150 11.4167 150 25.5C150 39.5833 161.417 51 175.5 51C189.583 51 201 39.5833 201 25.5Z" fill="#1778F2"/>
<path d="M177.533 39.8933V26.2436H182.115L182.802 20.9239H177.533V17.5276C177.533 15.9875 177.961 14.9379 180.17 14.9379H182.986V10.1815C181.623 10.0372 180.253 9.96733 178.882 9.97216C174.82 9.97216 172.04 12.4511 172.04 17.0038V20.9239H167.446V26.2436H172.04V39.8933H177.533Z" fill="#FDFDFD"/>
</g>
</g>
<defs>
<radialGradient id="paint0_radial_106_1784" cx="0" cy="0" r="1" gradientUnits="userSpaceOnUse" gradientTransform="translate(10.957 48.4102) scale(54.7852)">
<stop stop-color="#FFD676"/>
<stop offset="0.25" stop-color="#F2A454"/>
<stop offset="0.38" stop-color="#F05C3C"/>
<stop offset="0.7" stop-color="#C22F86"/>
<stop offset="0.96" stop-color="#6666AD"/>
<stop offset="0.99" stop-color="#5C6CB2"/>
</radialGradient>
<clipPath id="clip0_106_1784">
<rect width="51" height="51" fill="white"/>
</clipPath>
<clipPath id="clip1_106_1784">
<rect width="51" height="51" fill="white" transform="translate(75)"/>
</clipPath>
<clipPath id="clip2_106_1784">
<rect width="51" height="51" fill="white" transform="translate(150)"/>
</clipPath>
<clipPath id="clip3_106_1784">
<rect width="51" height="51" fill="white" transform="translate(150)"/>
</clipPath>
</defs>
</svg>
