<svg width="32" height="32" viewBox="0 0 32 32" fill="none" xmlns="http://www.w3.org/2000/svg">
<g clip-path="url(#clip0_181_312)">
<path d="M25.5 2V30C25.5 30.83 24.83 31.5 24 31.5H8C7.17 31.5 6.5 30.83 6.5 30V2C6.5 1.17 7.17 0.5 8 0.5H24C24.83 0.5 25.5 1.17 25.5 2Z" fill="#8030FE"/>
<path d="M25.5 2V30C25.5 30.83 24.83 31.5 24 31.5H8C7.17 31.5 6.5 30.83 6.5 30V28.5H21C21.83 28.5 22.5 27.83 22.5 27V0.5H24C24.83 0.5 25.5 1.17 25.5 2Z" fill="#6C1EC6"/>
<path d="M25.5 2V30C25.5 30.83 24.83 31.5 24 31.5H8C7.17 31.5 6.5 30.83 6.5 30H22.5C23.33 30 24 29.33 24 28.5V0.5C24.83 0.5 25.5 1.17 25.5 2Z" fill="#4E0EAA"/>
<path d="M24 2V4.75L21.5 2H24Z" fill="#4D4D4D"/>
<path d="M23.5449 14.515C24.1299 15.1 24.1299 16.05 23.5449 16.635L21.8949 18.285C21.3499 17.435 20.6249 16.71 19.7749 16.165L21.4249 14.515C21.7099 14.23 22.0849 14.075 22.4849 14.075C22.8849 14.075 23.2649 14.23 23.5449 14.515ZM22.9999 15.5C22.9999 15.225 22.7749 15 22.4999 15C22.2249 15 21.9999 15.225 21.9999 15.5C21.9999 15.775 22.2249 16 22.4999 16C22.7749 16 22.9999 15.775 22.9999 15.5ZM23.5449 27.395C24.1299 27.98 24.1299 28.93 23.5449 29.515C23.2649 29.8 22.8849 29.955 22.4849 29.955C22.0849 29.955 21.7099 29.8 21.4249 29.515L19.8299 27.92C20.6749 27.365 21.3899 26.635 21.9299 25.78L23.5449 27.395ZM22.9999 28.5C22.9999 28.225 22.7749 28 22.4999 28C22.2249 28 21.9999 28.225 21.9999 28.5C21.9999 28.775 22.2249 29 22.4999 29C22.7749 29 22.9999 28.775 22.9999 28.5Z" fill="#4D4D4D"/>
<path d="M21.895 18.285C22.595 19.375 23 20.67 23 22.06C23 23.425 22.605 24.7 21.93 25.78C21.39 26.635 20.675 27.365 19.83 27.92C18.73 28.64 17.415 29.06 16 29.06C14.605 29.06 13.305 28.65 12.21 27.94C11.36 27.395 10.635 26.67 10.095 25.815C9.4 24.73 9 23.44 9 22.06C9 20.655 9.415 19.345 10.13 18.25C10.68 17.4 11.41 16.68 12.265 16.145C13.345 15.455 14.63 15.06 16 15.06C17.39 15.06 18.685 15.465 19.775 16.165C20.625 16.71 21.35 17.435 21.895 18.285ZM20.5 22.06C20.5 19.575 18.485 17.56 16 17.56C13.515 17.56 11.5 19.575 11.5 22.06C11.5 24.545 13.515 26.56 16 26.56C18.485 26.56 20.5 24.545 20.5 22.06ZM16 2C19.04 2 21.5 4.46 21.5 7.5C21.5 10.54 19.04 13 16 13C12.96 13 10.5 10.54 10.5 7.5C10.5 4.46 12.96 2 16 2ZM20 7.5C20 5.29 18.21 3.5 16 3.5C13.79 3.5 12 5.29 12 7.5C12 9.71 13.79 11.5 16 11.5C18.21 11.5 20 9.71 20 7.5Z" fill="#666666"/>
<path d="M16 17.56C18.485 17.56 20.5 19.575 20.5 22.06C20.5 24.545 18.485 26.56 16 26.56C13.515 26.56 11.5 24.545 11.5 22.06C11.5 19.575 13.515 17.56 16 17.56ZM18 22.06C18 20.955 17.105 20.06 16 20.06C14.895 20.06 14 20.955 14 22.06C14 23.165 14.895 24.06 16 24.06C17.105 24.06 18 23.165 18 22.06ZM16 3.5C18.21 3.5 20 5.29 20 7.5C20 9.71 18.21 11.5 16 11.5C13.79 11.5 12 9.71 12 7.5C12 5.29 13.79 3.5 16 3.5ZM18 7.5C18 6.395 17.105 5.5 16 5.5C14.895 5.5 14 6.395 14 7.5C14 8.605 14.895 9.5 16 9.5C17.105 9.5 18 8.605 18 7.5Z" fill="#4D4D4D"/>
<path d="M16 9.5C17.1046 9.5 18 8.60457 18 7.5C18 6.39543 17.1046 5.5 16 5.5C14.8954 5.5 14 6.39543 14 7.5C14 8.60457 14.8954 9.5 16 9.5Z" fill="#666666"/>
<path d="M16 24.0601C17.1046 24.0601 18 23.1646 18 22.0601C18 20.9555 17.1046 20.0601 16 20.0601C14.8954 20.0601 14 20.9555 14 22.0601C14 23.1646 14.8954 24.0601 16 24.0601Z" fill="#666666"/>
<path d="M10.5602 14.44L12.2652 16.145C11.4102 16.68 10.6802 17.4 10.1302 18.25L8.44021 16.56C7.85521 15.975 7.85521 15.025 8.44021 14.44C8.72521 14.155 9.10022 14 9.50022 14C9.90022 14 10.2752 14.155 10.5602 14.44ZM10.0002 15.5C10.0002 15.225 9.77522 15 9.50022 15C9.22522 15 9.00022 15.225 9.00022 15.5C9.00022 15.775 9.22522 16 9.50022 16C9.77522 16 10.0002 15.775 10.0002 15.5ZM12.2102 27.94L10.5602 29.59C10.2752 29.875 9.90022 30.03 9.50022 30.03C9.10022 30.03 8.72521 29.875 8.44021 29.59C7.85521 29.005 7.85521 28.055 8.44021 27.47L10.0952 25.815C10.6352 26.67 11.3602 27.395 12.2102 27.94ZM10.0002 28.5C10.0002 28.225 9.77522 28 9.50022 28C9.22522 28 9.00022 28.225 9.00022 28.5C9.00022 28.775 9.22522 29 9.50022 29C9.77522 29 10.0002 28.775 10.0002 28.5Z" fill="#4D4D4D"/>
<path d="M10.5 2L8 4.75V2H10.5Z" fill="#4D4D4D"/>
<path d="M8.31543 6.45654C8.04443 6.45654 7.81543 6.68554 7.81543 6.95654V9.34804C7.81543 9.61804 8.04543 9.84804 8.31543 9.84804C8.58643 9.84804 8.81543 9.61904 8.81543 9.34804V6.95654C8.81543 6.68654 8.58593 6.45654 8.31543 6.45654ZM8.31543 10.5435C7.67193 10.5435 7.67093 11.5435 8.31543 11.5435C8.95893 11.5435 8.95993 10.5435 8.31543 10.5435Z" fill="#B383FE"/>
<path d="M29.6463 1.6465L28.9998 2.293C28.6773 2.615 28.4998 3.044 28.4998 3.5C28.4998 3.689 28.4263 3.866 28.2928 4L27.6463 4.6465C27.4508 4.842 27.4508 5.158 27.6463 5.3535C27.7438 5.451 27.8718 5.5 27.9998 5.5C28.1278 5.5 28.2558 5.451 28.3533 5.3535L28.9998 4.707C29.3223 4.385 29.4998 3.956 29.4998 3.5C29.4998 3.311 29.5733 3.134 29.7068 3L30.3533 2.3535C30.5488 2.158 30.5488 1.842 30.3533 1.6465C30.1578 1.451 29.8418 1.451 29.6463 1.6465ZM28.3533 16.3535L28.9998 15.707C29.3223 15.3845 29.4998 14.956 29.4998 14.5C29.4998 14.311 29.5733 14.134 29.7068 14L30.3533 13.3535C30.5488 13.158 30.5488 12.842 30.3533 12.6465C30.1578 12.451 29.8418 12.451 29.6463 12.6465L28.9998 13.293C28.6773 13.6155 28.4998 14.044 28.4998 14.5C28.4998 14.689 28.4263 14.866 28.2928 15L27.6463 15.6465C27.4508 15.842 27.4508 16.158 27.6463 16.3535C27.7438 16.451 27.8718 16.5 27.9998 16.5C28.1278 16.5 28.2558 16.451 28.3533 16.3535ZM31.2163 17.9045C31.1863 17.6295 30.9353 17.4295 30.6653 17.461L29.7573 17.5595C29.3038 17.6085 28.8963 17.831 28.6103 18.1865C28.4918 18.334 28.3233 18.426 28.1358 18.4465L27.2268 18.545C26.9523 18.575 26.7543 18.8215 26.7838 19.096C26.8118 19.3525 27.0283 19.5425 27.2803 19.5425C27.2983 19.5425 27.3163 19.5415 27.3343 19.5395L28.2423 19.441C28.6958 19.392 29.1033 19.1695 29.3893 18.814C29.5078 18.6665 29.6763 18.5745 29.8638 18.554L30.7728 18.4555C31.0478 18.4255 31.2458 18.1785 31.2163 17.9045ZM4.99976 12.5C5.12776 12.5 5.25576 12.451 5.35326 12.3535C5.54876 12.158 5.54876 11.842 5.35326 11.6465L4.70676 11C4.57326 10.866 4.49976 10.689 4.49976 10.5C4.49976 10.044 4.32226 9.615 3.99976 9.293L3.35326 8.6465C3.15776 8.451 2.84176 8.451 2.64626 8.6465C2.45076 8.842 2.45076 9.158 2.64626 9.3535L3.29276 10C3.42626 10.134 3.49976 10.311 3.49976 10.5C3.49976 10.956 3.67726 11.385 3.99976 11.707L4.64626 12.3535C4.74376 12.451 4.87176 12.5 4.99976 12.5ZM31.6738 7.6405C31.6008 7.513 31.4753 7.424 31.3308 7.3975L28.3813 6.851C28.2503 6.827 28.1163 6.8555 28.0068 6.9305C27.8973 7.0055 27.8228 7.121 27.7983 7.252L27.3433 9.7105L26.8513 9.619C26.5788 9.567 26.3188 9.7475 26.2688 10.02C26.2183 10.2915 26.3978 10.552 26.6698 10.6025L27.6533 10.7845C27.9228 10.8355 28.1853 10.6555 28.2358 10.3835L28.6908 7.925L30.5688 8.273L29.8768 10.179L29.3103 10.074C29.0383 10.022 28.7778 10.203 28.7273 10.4745C28.6768 10.7465 28.8563 11.007 29.1278 11.0575L30.1108 11.2395C30.1418 11.245 30.1723 11.248 30.2028 11.248C30.4093 11.248 30.5993 11.119 30.6723 10.9185L31.7103 8.0595C31.7598 7.922 31.7463 7.7685 31.6738 7.6405ZM28.6288 22.948C28.3563 22.8965 28.0968 23.077 28.0458 23.3485C27.9953 23.62 28.1748 23.881 28.4463 23.9315L29.1573 24.0635C29.1883 24.069 29.2188 24.072 29.2493 24.072C29.4558 24.072 29.6458 23.943 29.7188 23.7425L30.4693 21.675C30.5193 21.537 30.5058 21.384 30.4333 21.256C30.3603 21.1285 30.2348 21.0395 30.0898 21.013L27.9568 20.618C27.6858 20.5665 27.4248 20.747 27.3743 21.019L27.0708 22.66L26.8513 22.6195C26.5788 22.5665 26.3188 22.749 26.2688 23.0205C26.2183 23.292 26.3983 23.5525 26.6698 23.603L27.3808 23.7345C27.6518 23.7855 27.9128 23.605 27.9633 23.3335L28.2668 21.6925L29.3278 21.8895L28.9233 23.004L28.6288 22.948ZM3.52026 14.5C3.52026 14.044 3.34276 13.615 3.02026 13.293L2.37376 12.6465C2.17826 12.451 1.86226 12.451 1.66676 12.6465C1.47126 12.842 1.47126 13.158 1.66676 13.3535L2.31326 14C2.44676 14.134 2.52026 14.311 2.52026 14.5C2.52026 14.955 2.69726 15.384 3.02026 15.707L3.66676 16.3535C3.76426 16.451 3.89226 16.5 4.02026 16.5C4.14826 16.5 4.27626 16.451 4.37376 16.3535C4.56926 16.158 4.56926 15.842 4.37376 15.6465L3.72776 15.0005C3.59376 14.866 3.52026 14.6885 3.52026 14.5ZM1.24676 18.455L2.15626 18.5535C2.34326 18.5735 2.51176 18.666 2.63026 18.8135C2.91626 19.169 3.32376 19.3915 3.77626 19.4405L4.68526 19.539C4.70326 19.541 4.72126 19.542 4.73926 19.542C4.99126 19.542 5.20826 19.352 5.23576 19.0955C5.26576 18.821 5.06726 18.5745 4.79276 18.5445L3.88326 18.446C3.69626 18.426 3.52776 18.3335 3.40926 18.186C3.12326 17.8305 2.71576 17.608 2.26326 17.559L1.35476 17.461C1.08276 17.429 0.833761 17.6295 0.803761 17.9045C0.774261 18.1785 0.972261 18.4255 1.24676 18.455ZM4.05726 23.333C4.10776 23.605 4.36926 23.785 4.63976 23.734L5.35076 23.6025C5.62226 23.552 5.80176 23.2915 5.75176 23.02C5.70176 22.7485 5.44026 22.5665 5.16926 22.619L4.94976 22.6595L4.64626 21.0185C4.59576 20.7465 4.33526 20.567 4.06376 20.6175L1.93076 21.0125C1.78626 21.0395 1.66076 21.128 1.58726 21.2555C1.51426 21.3835 1.50126 21.5365 1.55126 21.6745L2.30176 23.742C2.37476 23.9425 2.56476 24.0715 2.77126 24.0715C2.80176 24.0715 2.83226 24.0685 2.86326 24.063L3.57426 23.931C3.84576 23.8805 4.02476 23.6195 3.97476 23.348C3.92376 23.0765 3.66226 22.897 3.39176 22.9475L3.09726 23.002L2.69276 21.8875L3.75376 21.6905L4.05726 23.333ZM1.34326 5.7105L0.851261 5.619C0.578761 5.5675 0.318761 5.748 0.268761 6.02C0.218261 6.2915 0.397761 6.552 0.669761 6.6025L1.65326 6.7845C1.92276 6.8365 2.18526 6.6555 2.23576 6.3835L2.69076 3.925L4.56876 4.273L3.87676 6.179L3.31026 6.074C3.03826 6.0215 2.77776 6.203 2.72726 6.4745C2.67676 6.7465 2.85626 7.007 3.12776 7.0575L4.11076 7.2395C4.14176 7.245 4.17226 7.248 4.20276 7.248C4.40926 7.248 4.59926 7.119 4.67226 6.9185L5.71026 4.0595C5.76026 3.922 5.74676 3.7685 5.67426 3.6405C5.60126 3.513 5.47576 3.424 5.33126 3.3975L2.38126 2.851C2.25026 2.8275 2.11626 2.8555 2.00676 2.9305C1.89726 3.0055 1.82276 3.121 1.79826 3.252L1.34326 5.7105ZM5.99976 30C5.99976 31.103 6.89676 32 7.99976 32H23.9998C25.1028 32 25.9998 31.103 25.9998 30V2C25.9998 0.897 25.1028 0 23.9998 0H7.99976C6.89676 0 5.99976 0.897 5.99976 2V30ZM6.99976 2C6.99976 1.4485 7.44826 1 7.99976 1H23.9998C24.5513 1 24.9998 1.4485 24.9998 2V30C24.9998 30.5515 24.5513 31 23.9998 31H7.99976C7.44826 31 6.99976 30.5515 6.99976 30V2Z" fill="#333333"/>
<path d="M16 13.5C19.3085 13.5 22 10.8085 22 7.5C22 4.1915 19.3085 1.5 16 1.5C12.6915 1.5 10 4.1915 10 7.5C10 10.8085 12.6915 13.5 16 13.5ZM16 2.5C18.757 2.5 21 4.743 21 7.5C21 10.257 18.757 12.5 16 12.5C13.243 12.5 11 10.257 11 7.5C11 4.743 13.243 2.5 16 2.5Z" fill="#333333"/>
<path d="M16 10C17.3785 10 18.5 8.8785 18.5 7.5C18.5 6.1215 17.3785 5 16 5C14.6215 5 13.5 6.1215 13.5 7.5C13.5 8.8785 14.6215 10 16 10ZM16 6C16.827 6 17.5 6.673 17.5 7.5C17.5 8.327 16.827 9 16 9C15.173 9 14.5 8.327 14.5 7.5C14.5 6.673 15.173 6 16 6Z" fill="#333333"/>
<path d="M16 12C18.4815 12 20.5 9.9815 20.5 7.5C20.5 5.0185 18.4815 3 16 3C13.5185 3 11.5 5.0185 11.5 7.5C11.5 9.9815 13.5185 12 16 12ZM16 4C17.9295 4 19.5 5.5705 19.5 7.5C19.5 9.4295 17.9295 11 16 11C14.0705 11 12.5 9.4295 12.5 7.5C12.5 5.5705 14.0705 4 16 4ZM16 17.0595C13.243 17.0595 11 19.3025 11 22.0595C11 24.8165 13.243 27.0595 16 27.0595C18.757 27.0595 21 24.8165 21 22.0595C21 19.3025 18.757 17.0595 16 17.0595ZM16 26.0595C13.7945 26.0595 12 24.265 12 22.0595C12 19.854 13.7945 18.0595 16 18.0595C18.2055 18.0595 20 19.854 20 22.0595C20 24.265 18.2055 26.0595 16 26.0595Z" fill="#333333"/>
<path d="M16 19.5594C14.6215 19.5594 13.5 20.6809 13.5 22.0594C13.5 23.4379 14.6215 24.5594 16 24.5594C17.3785 24.5594 18.5 23.4379 18.5 22.0594C18.5 20.6809 17.3785 19.5594 16 19.5594ZM16 23.5594C15.173 23.5594 14.5 22.8864 14.5 22.0594C14.5 21.2324 15.173 20.5594 16 20.5594C16.827 20.5594 17.5 21.2324 17.5 22.0594C17.5 22.8864 16.827 23.5594 16 23.5594Z" fill="#333333"/>
<path d="M22.5536 25.6965C23.1546 24.6185 23.4996 23.379 23.4996 22.0595C23.4996 20.7165 23.1406 19.458 22.5196 18.367L23.8976 16.9885C24.6771 16.209 24.6771 14.941 23.9011 14.1655C23.5281 13.785 23.0246 13.5755 22.4841 13.5755C21.9511 13.5755 21.4486 13.7835 21.0706 14.162L19.6926 15.54C18.6011 14.919 17.3426 14.56 15.9996 14.56C14.6721 14.56 13.4266 14.91 12.3436 15.5175L10.9131 14.087C10.1571 13.33 8.84159 13.33 8.08609 14.087C7.30659 14.8665 7.30659 16.135 8.08609 16.914L9.50209 18.33C8.86809 19.43 8.49959 20.7015 8.49959 22.06C8.49959 23.3955 8.85409 24.6475 9.46859 25.7345L8.08609 27.117C7.30659 27.8965 7.30659 29.1645 8.08609 29.9435C8.46409 30.322 8.96659 30.53 9.49959 30.53C10.0326 30.53 10.5351 30.322 10.9131 29.9435L12.2881 28.5685C13.3841 29.196 14.6491 29.5595 15.9996 29.5595C17.3656 29.5595 18.6441 29.1865 19.7481 28.5455L21.0711 29.869C21.4496 30.247 21.9516 30.455 22.4841 30.455C23.0241 30.455 23.5271 30.2455 23.8976 29.8685C24.2751 29.491 24.4826 28.989 24.4826 28.455C24.4826 27.921 24.2751 27.419 23.8976 27.0415L22.5536 25.6965ZM21.7781 14.8685C22.1621 14.4845 22.8171 14.4875 23.1911 14.8685C23.3796 15.057 23.4836 15.308 23.4836 15.5745C23.4836 15.8415 23.3796 16.0925 23.1911 16.281L21.9546 17.518C21.5481 16.986 21.0736 16.5115 20.5416 16.105L21.7781 14.8685ZM8.79309 16.2065C8.40359 15.817 8.40359 15.183 8.79309 14.7935C9.17709 14.4095 9.82259 14.4095 10.2061 14.7935L11.4921 16.0795C10.9581 16.483 10.4801 16.9545 10.0706 17.484L8.79309 16.2065ZM10.2061 29.2365C9.82209 29.6205 9.17659 29.6205 8.79309 29.2365C8.40409 28.847 8.40409 28.2135 8.79309 27.824L10.0326 26.5845C10.4376 27.1175 10.9106 27.5935 11.4411 28.0015L10.2061 29.2365ZM9.49959 22.0595C9.49959 18.4755 12.4156 15.5595 15.9996 15.5595C19.5836 15.5595 22.4996 18.4755 22.4996 22.0595C22.4996 25.6435 19.5836 28.5595 15.9996 28.5595C12.4156 28.5595 9.49959 25.6435 9.49959 22.0595ZM23.1881 29.1645C22.8226 29.537 22.1591 29.542 21.7781 29.1615L20.5926 27.976C21.1206 27.565 21.5906 27.0855 21.9926 26.55L23.1911 27.7485C23.5806 28.138 23.5806 28.772 23.1881 29.1645Z" fill="#333333"/>
<path d="M9.5 16C9.77614 16 10 15.7761 10 15.5C10 15.2239 9.77614 15 9.5 15C9.22386 15 9 15.2239 9 15.5C9 15.7761 9.22386 16 9.5 16Z" fill="#333333"/>
<path d="M22.5 16C22.7761 16 23 15.7761 23 15.5C23 15.2239 22.7761 15 22.5 15C22.2239 15 22 15.2239 22 15.5C22 15.7761 22.2239 16 22.5 16Z" fill="#333333"/>
<path d="M9.5 29C9.77614 29 10 28.7761 10 28.5C10 28.2239 9.77614 28 9.5 28C9.22386 28 9 28.2239 9 28.5C9 28.7761 9.22386 29 9.5 29Z" fill="#333333"/>
<path d="M22.5 29C22.7761 29 23 28.7761 23 28.5C23 28.2239 22.7761 28 22.5 28C22.2239 28 22 28.2239 22 28.5C22 28.7761 22.2239 29 22.5 29Z" fill="#333333"/>
<path d="M7.82 5.2165C7.8785 5.2395 7.9395 5.25 8 5.25C8.138 5.25 8.2735 5.193 8.37 5.0865L10.87 2.3365C11.003 2.19 11.037 1.9785 10.957 1.798C10.877 1.6165 10.698 1.5 10.5 1.5H8C7.7235 1.5 7.5 1.7235 7.5 2V4.75C7.5 4.9565 7.627 5.142 7.82 5.2165ZM8.5 2.5H9.3695L8.5 3.4565V2.5ZM23.63 5.0865C23.7265 5.193 23.862 5.25 24 5.25C24.0605 5.25 24.1215 5.2395 24.18 5.2165C24.373 5.142 24.5 4.9565 24.5 4.75V2C24.5 1.7235 24.2765 1.5 24 1.5H21.5C21.302 1.5 21.123 1.6165 21.043 1.798C20.963 1.9785 20.997 2.19 21.13 2.3365L23.63 5.0865ZM23.5 2.5V3.4565L22.6305 2.5H23.5Z" fill="#333333"/>
</g>
<defs>
<clipPath id="clip0_181_312">
<rect width="32" height="32" fill="white"/>
</clipPath>
</defs>
</svg>
