<svg width="161" height="49" viewBox="0 0 161 49" fill="none" xmlns="http://www.w3.org/2000/svg">
<g clip-path="url(#clip0_118_41)">
<rect x="0.191895" y="0.753418" width="160" height="48" rx="8" fill="#900000"/>
<path d="M51.3325 26.8237C51.3325 26.5894 51.2961 26.381 51.2231 26.1987C51.1554 26.0164 51.033 25.8498 50.856 25.6987C50.6789 25.5477 50.4289 25.4019 50.106 25.2612C49.7882 25.1154 49.382 24.967 48.8872 24.8159C48.3455 24.6493 47.8455 24.4644 47.3872 24.2612C46.9341 24.0529 46.5382 23.8133 46.1997 23.5425C45.8612 23.2664 45.5981 22.9513 45.4106 22.5972C45.2231 22.2378 45.1294 21.8237 45.1294 21.355C45.1294 20.8914 45.2257 20.4696 45.4185 20.0894C45.6164 19.7091 45.895 19.381 46.2544 19.105C46.619 18.8237 47.0487 18.6076 47.5435 18.4565C48.0382 18.3003 48.5851 18.2222 49.1841 18.2222C50.0278 18.2222 50.7544 18.3784 51.3638 18.6909C51.9784 19.0034 52.4497 19.4227 52.7778 19.9487C53.1112 20.4748 53.2778 21.0555 53.2778 21.6909H51.3325C51.3325 21.3159 51.2518 20.9852 51.0903 20.6987C50.9341 20.4071 50.6945 20.1779 50.3716 20.0112C50.0539 19.8446 49.6502 19.7612 49.1606 19.7612C48.6971 19.7612 48.3117 19.8315 48.0044 19.9722C47.6971 20.1128 47.4679 20.3029 47.3169 20.5425C47.1659 20.7821 47.0903 21.0529 47.0903 21.355C47.0903 21.5685 47.1398 21.7638 47.2388 21.9409C47.3377 22.1128 47.4888 22.2743 47.6919 22.4253C47.895 22.5711 48.1502 22.7091 48.4575 22.8394C48.7648 22.9696 49.1268 23.0946 49.5435 23.2144C50.1737 23.4019 50.7231 23.6102 51.1919 23.8394C51.6606 24.0633 52.0513 24.3185 52.3638 24.605C52.6763 24.8914 52.9106 25.217 53.0669 25.5815C53.2231 25.9409 53.3013 26.3498 53.3013 26.8081C53.3013 27.2873 53.2049 27.7196 53.0122 28.105C52.8195 28.4852 52.5435 28.8107 52.1841 29.0815C51.8299 29.3472 51.4028 29.5529 50.9028 29.6987C50.408 29.8394 49.856 29.9097 49.2466 29.9097C48.6997 29.9097 48.1606 29.8368 47.6294 29.6909C47.1034 29.5451 46.6242 29.3237 46.1919 29.0269C45.7596 28.7248 45.4159 28.3498 45.1606 27.9019C44.9054 27.4487 44.7778 26.9201 44.7778 26.3159H46.7388C46.7388 26.6857 46.8013 27.0008 46.9263 27.2612C47.0565 27.5216 47.2362 27.7352 47.4653 27.9019C47.6945 28.0633 47.9601 28.1831 48.2622 28.2612C48.5695 28.3394 48.8976 28.3784 49.2466 28.3784C49.7049 28.3784 50.0877 28.3133 50.395 28.1831C50.7075 28.0529 50.9419 27.8706 51.0981 27.6362C51.2544 27.4019 51.3325 27.131 51.3325 26.8237ZM59.9341 27.7612V21.3003H61.8247V29.7534H60.0435L59.9341 27.7612ZM60.1997 26.0034L60.8325 25.9878C60.8325 26.5555 60.77 27.0789 60.645 27.5581C60.52 28.0321 60.3273 28.4461 60.0669 28.8003C59.8065 29.1493 59.4731 29.4227 59.0669 29.6206C58.6606 29.8133 58.1737 29.9097 57.606 29.9097C57.1945 29.9097 56.8169 29.8498 56.4731 29.73C56.1294 29.6102 55.8325 29.4253 55.5825 29.1753C55.3377 28.9253 55.1476 28.5998 55.0122 28.1987C54.8768 27.7977 54.8091 27.3185 54.8091 26.7612V21.3003H56.6919V26.7769C56.6919 27.0841 56.7284 27.342 56.8013 27.5503C56.8742 27.7534 56.9731 27.9175 57.0981 28.0425C57.2231 28.1675 57.369 28.256 57.5356 28.3081C57.7023 28.3602 57.8794 28.3862 58.0669 28.3862C58.6034 28.3862 59.0252 28.2821 59.3325 28.0737C59.645 27.8602 59.8664 27.5737 59.9966 27.2144C60.132 26.855 60.1997 26.4513 60.1997 26.0034ZM63.7622 17.7534H65.645V27.9487L65.4653 29.7534H63.7622V17.7534ZM71.1606 25.4487V25.6128C71.1606 26.2378 71.0903 26.8133 70.9497 27.3394C70.8143 27.8602 70.606 28.3133 70.3247 28.6987C70.0487 29.0841 69.7049 29.3836 69.2935 29.5972C68.8872 29.8055 68.4159 29.9097 67.8794 29.9097C67.3534 29.9097 66.895 29.8107 66.5044 29.6128C66.1138 29.4149 65.7856 29.1336 65.52 28.769C65.2596 28.4045 65.0487 27.9696 64.8872 27.4644C64.7257 26.9591 64.6112 26.4019 64.5435 25.7925V25.269C64.6112 24.6545 64.7257 24.0972 64.8872 23.5972C65.0487 23.092 65.2596 22.6571 65.52 22.2925C65.7856 21.9227 66.1112 21.6388 66.4966 21.4409C66.8872 21.243 67.3429 21.144 67.8638 21.144C68.4054 21.144 68.882 21.2482 69.2935 21.4565C69.7101 21.6649 70.0565 21.9618 70.3325 22.3472C70.6086 22.7274 70.8143 23.1805 70.9497 23.7065C71.0903 24.2326 71.1606 24.8133 71.1606 25.4487ZM69.2778 25.6128V25.4487C69.2778 25.0685 69.2466 24.7118 69.1841 24.3784C69.1216 24.0399 69.0174 23.743 68.8716 23.4878C68.731 23.2326 68.5382 23.0321 68.2935 22.8862C68.0539 22.7352 67.7544 22.6597 67.395 22.6597C67.0617 22.6597 66.7752 22.717 66.5356 22.8315C66.2961 22.9461 66.0955 23.1024 65.9341 23.3003C65.7726 23.4982 65.645 23.7274 65.5513 23.9878C65.4627 24.2482 65.4028 24.5295 65.3716 24.8315V26.2456C65.4185 26.6362 65.5174 26.9956 65.6685 27.3237C65.8247 27.6466 66.0435 27.9071 66.3247 28.105C66.606 28.2977 66.9679 28.394 67.4106 28.394C67.7596 28.394 68.0539 28.3237 68.2935 28.1831C68.533 28.0425 68.7231 27.8472 68.8638 27.5972C69.0096 27.342 69.1138 27.0451 69.1763 26.7065C69.244 26.368 69.2778 26.0034 69.2778 25.6128ZM77.4966 27.4644C77.4966 27.2769 77.4497 27.1076 77.356 26.9565C77.2622 26.8003 77.0825 26.6597 76.8169 26.5347C76.5565 26.4097 76.1711 26.2951 75.6606 26.1909C75.2127 26.092 74.8013 25.9748 74.4263 25.8394C74.0565 25.6987 73.7388 25.5295 73.4731 25.3315C73.2075 25.1336 73.0018 24.8993 72.856 24.6284C72.7101 24.3576 72.6372 24.0451 72.6372 23.6909C72.6372 23.3472 72.7127 23.0216 72.8638 22.7144C73.0148 22.4071 73.231 22.1362 73.5122 21.9019C73.7935 21.6675 74.1346 21.4826 74.5356 21.3472C74.9419 21.2118 75.395 21.144 75.895 21.144C76.6034 21.144 77.2101 21.2638 77.7153 21.5034C78.2257 21.7378 78.6164 22.0581 78.8872 22.4644C79.158 22.8654 79.2935 23.3185 79.2935 23.8237H77.4106C77.4106 23.5998 77.3534 23.3914 77.2388 23.1987C77.1294 23.0008 76.9627 22.842 76.7388 22.7222C76.5148 22.5972 76.2336 22.5347 75.895 22.5347C75.5721 22.5347 75.3039 22.5868 75.0903 22.6909C74.882 22.7899 74.7257 22.9201 74.6216 23.0815C74.5226 23.243 74.4731 23.4201 74.4731 23.6128C74.4731 23.7534 74.4992 23.881 74.5513 23.9956C74.6086 24.105 74.7023 24.2065 74.8325 24.3003C74.9627 24.3888 75.1398 24.4722 75.3638 24.5503C75.5929 24.6284 75.8794 24.7039 76.2231 24.7769C76.869 24.9123 77.4237 25.0868 77.8872 25.3003C78.356 25.5086 78.7153 25.7795 78.9653 26.1128C79.2153 26.4409 79.3403 26.8576 79.3403 27.3628C79.3403 27.7378 79.2596 28.0815 79.0981 28.394C78.9419 28.7013 78.7127 28.9696 78.4106 29.1987C78.1086 29.4227 77.7466 29.5972 77.3247 29.7222C76.908 29.8472 76.4393 29.9097 75.9185 29.9097C75.1528 29.9097 74.5044 29.7743 73.9731 29.5034C73.4419 29.2274 73.0382 28.8758 72.7622 28.4487C72.4914 28.0164 72.356 27.5685 72.356 27.105H74.1763C74.1971 27.4539 74.2935 27.7326 74.4653 27.9409C74.6424 28.144 74.8612 28.2925 75.1216 28.3862C75.3872 28.4748 75.6606 28.519 75.9419 28.519C76.2804 28.519 76.5643 28.4748 76.7935 28.3862C77.0226 28.2925 77.1971 28.1675 77.3169 28.0112C77.4367 27.8498 77.4966 27.6675 77.4966 27.4644ZM84.4419 28.4097C84.7492 28.4097 85.0252 28.3498 85.27 28.23C85.52 28.105 85.7205 27.9331 85.8716 27.7144C86.0278 27.4956 86.1138 27.243 86.1294 26.9565H87.9028C87.8924 27.5034 87.731 28.0008 87.4185 28.4487C87.106 28.8966 86.6919 29.2534 86.1763 29.519C85.6606 29.7795 85.0903 29.9097 84.4653 29.9097C83.8195 29.9097 83.257 29.8003 82.7778 29.5815C82.2987 29.3576 81.9002 29.0503 81.5825 28.6597C81.2648 28.269 81.0252 27.8185 80.8638 27.3081C80.7075 26.7977 80.6294 26.2508 80.6294 25.6675V25.394C80.6294 24.8107 80.7075 24.2638 80.8638 23.7534C81.0252 23.2378 81.2648 22.7847 81.5825 22.394C81.9002 22.0034 82.2987 21.6987 82.7778 21.48C83.257 21.256 83.8169 21.144 84.4575 21.144C85.1346 21.144 85.7284 21.2795 86.2388 21.5503C86.7492 21.8159 87.1502 22.1883 87.4419 22.6675C87.7388 23.1414 87.8924 23.6935 87.9028 24.3237H86.1294C86.1138 24.0112 86.0356 23.73 85.895 23.48C85.7596 23.2248 85.5669 23.0216 85.3169 22.8706C85.0721 22.7196 84.7778 22.644 84.4341 22.644C84.0539 22.644 83.7388 22.7222 83.4888 22.8784C83.2388 23.0295 83.0435 23.2378 82.9028 23.5034C82.7622 23.7638 82.6606 24.0581 82.5981 24.3862C82.5409 24.7091 82.5122 25.0451 82.5122 25.394V25.6675C82.5122 26.0164 82.5409 26.355 82.5981 26.6831C82.6554 27.0112 82.7544 27.3055 82.895 27.5659C83.0409 27.8211 83.2388 28.0269 83.4888 28.1831C83.7388 28.3341 84.0565 28.4097 84.4419 28.4097ZM91.2388 22.9097V29.7534H89.356V21.3003H91.1528L91.2388 22.9097ZM93.8247 21.2456L93.8091 22.9956C93.6945 22.9748 93.5695 22.9591 93.4341 22.9487C93.3039 22.9383 93.1737 22.9331 93.0435 22.9331C92.7205 22.9331 92.4367 22.98 92.1919 23.0737C91.9471 23.1623 91.7414 23.2925 91.5747 23.4644C91.4132 23.631 91.2882 23.8341 91.1997 24.0737C91.1112 24.3133 91.0591 24.5815 91.0435 24.8784L90.6138 24.9097C90.6138 24.3784 90.6659 23.8862 90.77 23.4331C90.8742 22.98 91.0304 22.5815 91.2388 22.2378C91.4523 21.894 91.7179 21.6258 92.0356 21.4331C92.3586 21.2404 92.731 21.144 93.1528 21.144C93.2674 21.144 93.3898 21.1545 93.52 21.1753C93.6554 21.1961 93.757 21.2196 93.8247 21.2456ZM97.02 21.3003V29.7534H95.1294V21.3003H97.02ZM95.0044 19.0815C95.0044 18.7951 95.0981 18.5581 95.2856 18.3706C95.4784 18.1779 95.744 18.0815 96.0825 18.0815C96.4159 18.0815 96.6789 18.1779 96.8716 18.3706C97.0643 18.5581 97.1606 18.7951 97.1606 19.0815C97.1606 19.3628 97.0643 19.5972 96.8716 19.7847C96.6789 19.9722 96.4159 20.0659 96.0825 20.0659C95.744 20.0659 95.4784 19.9722 95.2856 19.7847C95.0981 19.5972 95.0044 19.3628 95.0044 19.0815ZM99.0903 17.7534H100.973V27.9487L100.793 29.7534H99.0903V17.7534ZM106.489 25.4487V25.6128C106.489 26.2378 106.418 26.8133 106.278 27.3394C106.142 27.8602 105.934 28.3133 105.653 28.6987C105.377 29.0841 105.033 29.3836 104.622 29.5972C104.215 29.8055 103.744 29.9097 103.208 29.9097C102.681 29.9097 102.223 29.8107 101.833 29.6128C101.442 29.4149 101.114 29.1336 100.848 28.769C100.588 28.4045 100.377 27.9696 100.215 27.4644C100.054 26.9591 99.9393 26.4019 99.8716 25.7925V25.269C99.9393 24.6545 100.054 24.0972 100.215 23.5972C100.377 23.092 100.588 22.6571 100.848 22.2925C101.114 21.9227 101.439 21.6388 101.825 21.4409C102.215 21.243 102.671 21.144 103.192 21.144C103.734 21.144 104.21 21.2482 104.622 21.4565C105.038 21.6649 105.385 21.9618 105.661 22.3472C105.937 22.7274 106.142 23.1805 106.278 23.7065C106.418 24.2326 106.489 24.8133 106.489 25.4487ZM104.606 25.6128V25.4487C104.606 25.0685 104.575 24.7118 104.512 24.3784C104.45 24.0399 104.346 23.743 104.2 23.4878C104.059 23.2326 103.866 23.0321 103.622 22.8862C103.382 22.7352 103.083 22.6597 102.723 22.6597C102.39 22.6597 102.103 22.717 101.864 22.8315C101.624 22.9461 101.424 23.1024 101.262 23.3003C101.101 23.4982 100.973 23.7274 100.879 23.9878C100.791 24.2482 100.731 24.5295 100.7 24.8315V26.2456C100.747 26.6362 100.846 26.9956 100.997 27.3237C101.153 27.6466 101.372 27.9071 101.653 28.105C101.934 28.2977 102.296 28.394 102.739 28.394C103.088 28.394 103.382 28.3237 103.622 28.1831C103.861 28.0425 104.051 27.8472 104.192 27.5972C104.338 27.342 104.442 27.0451 104.504 26.7065C104.572 26.368 104.606 26.0034 104.606 25.6128ZM111.809 29.9097C111.184 29.9097 110.619 29.8081 110.114 29.605C109.614 29.3966 109.187 29.1076 108.833 28.7378C108.484 28.368 108.215 27.9331 108.028 27.4331C107.84 26.9331 107.747 26.394 107.747 25.8159V25.5034C107.747 24.842 107.843 24.243 108.036 23.7065C108.228 23.1701 108.497 22.7118 108.84 22.3315C109.184 21.9461 109.59 21.6519 110.059 21.4487C110.528 21.2456 111.036 21.144 111.583 21.144C112.187 21.144 112.715 21.2456 113.168 21.4487C113.622 21.6519 113.997 21.9383 114.293 22.3081C114.596 22.6727 114.819 23.1076 114.965 23.6128C115.116 24.118 115.192 24.6753 115.192 25.2847V26.0894H108.661V24.7378H113.333V24.5894C113.322 24.2508 113.254 23.9331 113.129 23.6362C113.01 23.3394 112.825 23.0998 112.575 22.9175C112.325 22.7352 111.991 22.644 111.575 22.644C111.262 22.644 110.984 22.7118 110.739 22.8472C110.499 22.9774 110.299 23.1675 110.137 23.4175C109.976 23.6675 109.851 23.9696 109.762 24.3237C109.679 24.6727 109.637 25.0659 109.637 25.5034V25.8159C109.637 26.1857 109.687 26.5295 109.786 26.8472C109.89 27.1597 110.041 27.4331 110.239 27.6675C110.437 27.9019 110.676 28.0868 110.958 28.2222C111.239 28.3524 111.559 28.4175 111.918 28.4175C112.372 28.4175 112.775 28.3263 113.129 28.144C113.484 27.9618 113.791 27.7039 114.051 27.3706L115.043 28.3315C114.861 28.5972 114.624 28.8524 114.333 29.0972C114.041 29.3368 113.684 29.5321 113.262 29.6831C112.846 29.8341 112.361 29.9097 111.809 29.9097Z" fill="white"/>
</g>
<defs>
<clipPath id="clip0_118_41">
<rect width="160" height="48" fill="white" transform="translate(0.191895 0.753418)"/>
</clipPath>
</defs>
</svg>
