<svg width="160" height="48" viewBox="0 0 160 48" fill="none" xmlns="http://www.w3.org/2000/svg">
<g clip-path="url(#clip0_118_13)">
<rect width="160" height="48" rx="8" fill="#900000"/>
<path d="M21.5547 26.9219L24.5469 17.625H26.7109L22.6328 29H21.1719L21.5547 26.9219ZM18.7891 17.625L21.7578 26.9219L22.1641 29H20.6953L16.6328 17.625H18.7891ZM29.8125 20.5469V29H27.9219V20.5469H29.8125ZM27.7969 18.3281C27.7969 18.0417 27.8906 17.8047 28.0781 17.6172C28.2708 17.4245 28.5365 17.3281 28.875 17.3281C29.2083 17.3281 29.4714 17.4245 29.6641 17.6172C29.8568 17.8047 29.9531 18.0417 29.9531 18.3281C29.9531 18.6094 29.8568 18.8438 29.6641 19.0312C29.4714 19.2188 29.2083 19.3125 28.875 19.3125C28.5365 19.3125 28.2708 19.2188 28.0781 19.0312C27.8906 18.8438 27.7969 18.6094 27.7969 18.3281ZM35.6016 29.1562C34.9766 29.1562 34.4115 29.0547 33.9062 28.8516C33.4062 28.6432 32.9792 28.3542 32.625 27.9844C32.276 27.6146 32.0078 27.1797 31.8203 26.6797C31.6328 26.1797 31.5391 25.6406 31.5391 25.0625V24.75C31.5391 24.0885 31.6354 23.4896 31.8281 22.9531C32.0208 22.4167 32.2891 21.9583 32.6328 21.5781C32.9766 21.1927 33.3828 20.8984 33.8516 20.6953C34.3203 20.4922 34.8281 20.3906 35.375 20.3906C35.9792 20.3906 36.5078 20.4922 36.9609 20.6953C37.4141 20.8984 37.7891 21.1849 38.0859 21.5547C38.388 21.9193 38.612 22.3542 38.7578 22.8594C38.9089 23.3646 38.9844 23.9219 38.9844 24.5312V25.3359H32.4531V23.9844H37.125V23.8359C37.1146 23.4974 37.0469 23.1797 36.9219 22.8828C36.8021 22.5859 36.6172 22.3464 36.3672 22.1641C36.1172 21.9818 35.7839 21.8906 35.3672 21.8906C35.0547 21.8906 34.776 21.9583 34.5312 22.0938C34.2917 22.224 34.0911 22.4141 33.9297 22.6641C33.7682 22.9141 33.6432 23.2161 33.5547 23.5703C33.4714 23.9193 33.4297 24.3125 33.4297 24.75V25.0625C33.4297 25.4323 33.4792 25.776 33.5781 26.0938C33.6823 26.4062 33.8333 26.6797 34.0312 26.9141C34.2292 27.1484 34.4688 27.3333 34.75 27.4688C35.0312 27.599 35.3516 27.6641 35.7109 27.6641C36.1641 27.6641 36.5677 27.5729 36.9219 27.3906C37.276 27.2083 37.5833 26.9505 37.8438 26.6172L38.8359 27.5781C38.6536 27.8438 38.4167 28.099 38.125 28.3438C37.8333 28.5833 37.4766 28.7786 37.0547 28.9297C36.638 29.0807 36.1536 29.1562 35.6016 29.1562ZM42.75 27.125L44.7031 20.5469H45.9062L45.5781 22.5156L43.6094 29H42.5312L42.75 27.125ZM41.6016 20.5469L43.125 27.1562L43.25 29H42.0469L39.7578 20.5469H41.6016ZM47.7344 27.0781L49.2109 20.5469H51.0469L48.7656 29H47.5625L47.7344 27.0781ZM46.1094 20.5469L48.0391 27.0469L48.2812 29H47.2031L45.2109 22.5078L44.8828 20.5469H46.1094ZM60.9297 19.1406L57.5312 29H55.4766L59.7578 17.625H61.0703L60.9297 19.1406ZM63.7734 29L60.3672 19.1406L60.2188 17.625H61.5391L65.8359 29H63.7734ZM63.6094 24.7812V26.3359H57.4219V24.7812H63.6094ZM68.9375 17V29H67.0469V17H68.9375ZM73.0156 17V29H71.125V17H73.0156ZM83.5703 24.7578H80.6094V23.2031H83.5703C84.0859 23.2031 84.5026 23.1198 84.8203 22.9531C85.138 22.7865 85.3698 22.5573 85.5156 22.2656C85.6667 21.9688 85.7422 21.6302 85.7422 21.25C85.7422 20.8906 85.6667 20.5547 85.5156 20.2422C85.3698 19.9245 85.138 19.6693 84.8203 19.4766C84.5026 19.2839 84.0859 19.1875 83.5703 19.1875H81.2109V29H79.25V17.625H83.5703C84.4505 17.625 85.1979 17.7812 85.8125 18.0938C86.4323 18.401 86.9036 18.8281 87.2266 19.375C87.5495 19.9167 87.7109 20.5365 87.7109 21.2344C87.7109 21.9688 87.5495 22.599 87.2266 23.125C86.9036 23.651 86.4323 24.0547 85.8125 24.3359C85.1979 24.6172 84.4505 24.7578 83.5703 24.7578ZM91.1719 22.1562V29H89.2891V20.5469H91.0859L91.1719 22.1562ZM93.7578 20.4922L93.7422 22.2422C93.6276 22.2214 93.5026 22.2057 93.3672 22.1953C93.237 22.1849 93.1068 22.1797 92.9766 22.1797C92.6536 22.1797 92.3698 22.2266 92.125 22.3203C91.8802 22.4089 91.6745 22.5391 91.5078 22.7109C91.3464 22.8776 91.2214 23.0807 91.1328 23.3203C91.0443 23.5599 90.9922 23.8281 90.9766 24.125L90.5469 24.1562C90.5469 23.625 90.599 23.1328 90.7031 22.6797C90.8073 22.2266 90.9635 21.8281 91.1719 21.4844C91.3854 21.1406 91.651 20.8724 91.9688 20.6797C92.2917 20.487 92.6641 20.3906 93.0859 20.3906C93.2005 20.3906 93.3229 20.401 93.4531 20.4219C93.5885 20.4427 93.6901 20.4661 93.7578 20.4922ZM94.375 24.8672V24.6875C94.375 24.0781 94.4635 23.513 94.6406 22.9922C94.8177 22.4661 95.0729 22.0104 95.4062 21.625C95.7448 21.2344 96.1562 20.9323 96.6406 20.7188C97.1302 20.5 97.6823 20.3906 98.2969 20.3906C98.9167 20.3906 99.4688 20.5 99.9531 20.7188C100.443 20.9323 100.857 21.2344 101.195 21.625C101.534 22.0104 101.792 22.4661 101.969 22.9922C102.146 23.513 102.234 24.0781 102.234 24.6875V24.8672C102.234 25.4766 102.146 26.0417 101.969 26.5625C101.792 27.0833 101.534 27.5391 101.195 27.9297C100.857 28.3151 100.445 28.6172 99.9609 28.8359C99.4766 29.0495 98.9271 29.1562 98.3125 29.1562C97.6927 29.1562 97.138 29.0495 96.6484 28.8359C96.1641 28.6172 95.7526 28.3151 95.4141 27.9297C95.0755 27.5391 94.8177 27.0833 94.6406 26.5625C94.4635 26.0417 94.375 25.4766 94.375 24.8672ZM96.2578 24.6875V24.8672C96.2578 25.2474 96.2969 25.6068 96.375 25.9453C96.4531 26.2839 96.5755 26.5807 96.7422 26.8359C96.9089 27.0911 97.1224 27.2917 97.3828 27.4375C97.6432 27.5833 97.9531 27.6562 98.3125 27.6562C98.6615 27.6562 98.9635 27.5833 99.2188 27.4375C99.4792 27.2917 99.6927 27.0911 99.8594 26.8359C100.026 26.5807 100.148 26.2839 100.227 25.9453C100.31 25.6068 100.352 25.2474 100.352 24.8672V24.6875C100.352 24.3125 100.31 23.9583 100.227 23.625C100.148 23.2865 100.023 22.987 99.8516 22.7266C99.6849 22.4661 99.4714 22.263 99.2109 22.1172C98.9557 21.9661 98.651 21.8906 98.2969 21.8906C97.9427 21.8906 97.6354 21.9661 97.375 22.1172C97.1198 22.263 96.9089 22.4661 96.7422 22.7266C96.5755 22.987 96.4531 23.2865 96.375 23.625C96.2969 23.9583 96.2578 24.3125 96.2578 24.6875ZM108.969 27.25V17H110.859V29H109.148L108.969 27.25ZM103.469 24.8672V24.7031C103.469 24.0625 103.544 23.4792 103.695 22.9531C103.846 22.4219 104.065 21.9661 104.352 21.5859C104.638 21.2005 104.987 20.9062 105.398 20.7031C105.81 20.4948 106.273 20.3906 106.789 20.3906C107.299 20.3906 107.747 20.4896 108.133 20.6875C108.518 20.8854 108.846 21.1693 109.117 21.5391C109.388 21.9036 109.604 22.3411 109.766 22.8516C109.927 23.3568 110.042 23.9193 110.109 24.5391V25.0625C110.042 25.6667 109.927 26.2188 109.766 26.7188C109.604 27.2188 109.388 27.651 109.117 28.0156C108.846 28.3802 108.516 28.6615 108.125 28.8594C107.74 29.0573 107.289 29.1562 106.773 29.1562C106.263 29.1562 105.802 29.0495 105.391 28.8359C104.984 28.6224 104.638 28.3229 104.352 27.9375C104.065 27.5521 103.846 27.099 103.695 26.5781C103.544 26.0521 103.469 25.4818 103.469 24.8672ZM105.352 24.7031V24.8672C105.352 25.2526 105.385 25.612 105.453 25.9453C105.526 26.2786 105.638 26.5729 105.789 26.8281C105.94 27.0781 106.135 27.276 106.375 27.4219C106.62 27.5625 106.911 27.6328 107.25 27.6328C107.677 27.6328 108.029 27.5391 108.305 27.3516C108.581 27.1641 108.797 26.9115 108.953 26.5938C109.115 26.2708 109.224 25.9115 109.281 25.5156V24.1016C109.25 23.7943 109.185 23.5078 109.086 23.2422C108.992 22.9766 108.865 22.7448 108.703 22.5469C108.542 22.3438 108.341 22.1875 108.102 22.0781C107.867 21.9635 107.589 21.9062 107.266 21.9062C106.922 21.9062 106.63 21.9792 106.391 22.125C106.151 22.2708 105.953 22.4714 105.797 22.7266C105.646 22.9818 105.534 23.2786 105.461 23.6172C105.388 23.9557 105.352 24.3177 105.352 24.7031ZM117.914 27.0078V20.5469H119.805V29H118.023L117.914 27.0078ZM118.18 25.25L118.812 25.2344C118.812 25.8021 118.75 26.3255 118.625 26.8047C118.5 27.2786 118.307 27.6927 118.047 28.0469C117.786 28.3958 117.453 28.6693 117.047 28.8672C116.641 29.0599 116.154 29.1562 115.586 29.1562C115.174 29.1562 114.797 29.0964 114.453 28.9766C114.109 28.8568 113.812 28.6719 113.562 28.4219C113.318 28.1719 113.128 27.8464 112.992 27.4453C112.857 27.0443 112.789 26.5651 112.789 26.0078V20.5469H114.672V26.0234C114.672 26.3307 114.708 26.5885 114.781 26.7969C114.854 27 114.953 27.1641 115.078 27.2891C115.203 27.4141 115.349 27.5026 115.516 27.5547C115.682 27.6068 115.859 27.6328 116.047 27.6328C116.583 27.6328 117.005 27.5286 117.312 27.3203C117.625 27.1068 117.846 26.8203 117.977 26.4609C118.112 26.1016 118.18 25.6979 118.18 25.25ZM125.188 27.6562C125.495 27.6562 125.771 27.5964 126.016 27.4766C126.266 27.3516 126.466 27.1797 126.617 26.9609C126.773 26.7422 126.859 26.4896 126.875 26.2031H128.648C128.638 26.75 128.477 27.2474 128.164 27.6953C127.852 28.1432 127.438 28.5 126.922 28.7656C126.406 29.026 125.836 29.1562 125.211 29.1562C124.565 29.1562 124.003 29.0469 123.523 28.8281C123.044 28.6042 122.646 28.2969 122.328 27.9062C122.01 27.5156 121.771 27.0651 121.609 26.5547C121.453 26.0443 121.375 25.4974 121.375 24.9141V24.6406C121.375 24.0573 121.453 23.5104 121.609 23C121.771 22.4844 122.01 22.0312 122.328 21.6406C122.646 21.25 123.044 20.9453 123.523 20.7266C124.003 20.5026 124.562 20.3906 125.203 20.3906C125.88 20.3906 126.474 20.526 126.984 20.7969C127.495 21.0625 127.896 21.4349 128.188 21.9141C128.484 22.388 128.638 22.9401 128.648 23.5703H126.875C126.859 23.2578 126.781 22.9766 126.641 22.7266C126.505 22.4714 126.312 22.2682 126.062 22.1172C125.818 21.9661 125.523 21.8906 125.18 21.8906C124.799 21.8906 124.484 21.9688 124.234 22.125C123.984 22.276 123.789 22.4844 123.648 22.75C123.508 23.0104 123.406 23.3047 123.344 23.6328C123.286 23.9557 123.258 24.2917 123.258 24.6406V24.9141C123.258 25.263 123.286 25.6016 123.344 25.9297C123.401 26.2578 123.5 26.5521 123.641 26.8125C123.786 27.0677 123.984 27.2734 124.234 27.4297C124.484 27.5807 124.802 27.6562 125.188 27.6562ZM133.969 20.5469V21.9219H129.203V20.5469H133.969ZM130.578 18.4766H132.461V26.6641C132.461 26.9245 132.497 27.125 132.57 27.2656C132.648 27.401 132.755 27.4922 132.891 27.5391C133.026 27.5859 133.185 27.6094 133.367 27.6094C133.497 27.6094 133.622 27.6016 133.742 27.5859C133.862 27.5703 133.958 27.5547 134.031 27.5391L134.039 28.9766C133.883 29.0234 133.701 29.0651 133.492 29.1016C133.289 29.138 133.055 29.1562 132.789 29.1562C132.357 29.1562 131.974 29.0807 131.641 28.9297C131.307 28.7734 131.047 28.5208 130.859 28.1719C130.672 27.8229 130.578 27.3594 130.578 26.7812V18.4766ZM140.164 26.7109C140.164 26.5234 140.117 26.3542 140.023 26.2031C139.93 26.0469 139.75 25.9062 139.484 25.7812C139.224 25.6562 138.839 25.5417 138.328 25.4375C137.88 25.3385 137.469 25.2214 137.094 25.0859C136.724 24.9453 136.406 24.776 136.141 24.5781C135.875 24.3802 135.669 24.1458 135.523 23.875C135.378 23.6042 135.305 23.2917 135.305 22.9375C135.305 22.5938 135.38 22.2682 135.531 21.9609C135.682 21.6536 135.898 21.3828 136.18 21.1484C136.461 20.9141 136.802 20.7292 137.203 20.5938C137.609 20.4583 138.062 20.3906 138.562 20.3906C139.271 20.3906 139.878 20.5104 140.383 20.75C140.893 20.9844 141.284 21.3047 141.555 21.7109C141.826 22.112 141.961 22.5651 141.961 23.0703H140.078C140.078 22.8464 140.021 22.638 139.906 22.4453C139.797 22.2474 139.63 22.0885 139.406 21.9688C139.182 21.8438 138.901 21.7812 138.562 21.7812C138.24 21.7812 137.971 21.8333 137.758 21.9375C137.549 22.0365 137.393 22.1667 137.289 22.3281C137.19 22.4896 137.141 22.6667 137.141 22.8594C137.141 23 137.167 23.1276 137.219 23.2422C137.276 23.3516 137.37 23.4531 137.5 23.5469C137.63 23.6354 137.807 23.7188 138.031 23.7969C138.26 23.875 138.547 23.9505 138.891 24.0234C139.536 24.1589 140.091 24.3333 140.555 24.5469C141.023 24.7552 141.383 25.026 141.633 25.3594C141.883 25.6875 142.008 26.1042 142.008 26.6094C142.008 26.9844 141.927 27.3281 141.766 27.6406C141.609 27.9479 141.38 28.2161 141.078 28.4453C140.776 28.6693 140.414 28.8438 139.992 28.9688C139.576 29.0938 139.107 29.1562 138.586 29.1562C137.82 29.1562 137.172 29.0208 136.641 28.75C136.109 28.474 135.706 28.1224 135.43 27.6953C135.159 27.263 135.023 26.8151 135.023 26.3516H136.844C136.865 26.7005 136.961 26.9792 137.133 27.1875C137.31 27.3906 137.529 27.5391 137.789 27.6328C138.055 27.7214 138.328 27.7656 138.609 27.7656C138.948 27.7656 139.232 27.7214 139.461 27.6328C139.69 27.5391 139.865 27.4141 139.984 27.2578C140.104 27.0964 140.164 26.9141 140.164 26.7109Z" fill="white"/>
</g>
<defs>
<clipPath id="clip0_118_13">
<rect width="160" height="48" fill="white"/>
</clipPath>
</defs>
</svg>
